<svg width="273" height="152" viewBox="0 0 273 152" fill="none" xmlns="http://www.w3.org/2000/svg">
<mask id="path-1-inside-1_3240_25007" fill="white">
<path d="M29.5625 30C29.5625 13.4315 42.994 0 59.5625 0H208.639C225.208 0 238.639 13.4315 238.639 30V151H29.5625V30Z"/>
</mask>
<path d="M29.5625 30C29.5625 13.4315 42.994 0 59.5625 0H208.639C225.208 0 238.639 13.4315 238.639 30V151H29.5625V30Z" fill="white"/>
<path d="M26.5625 30C26.5625 11.7746 41.3371 -3 59.5625 -3H208.639C226.865 -3 241.639 11.7746 241.639 30H235.639C235.639 15.0883 223.551 3 208.639 3H59.5625C44.6508 3 32.5625 15.0883 32.5625 30H26.5625ZM238.639 151H29.5625H238.639ZM26.5625 151V30C26.5625 11.7746 41.3371 -3 59.5625 -3V3C44.6508 3 32.5625 15.0883 32.5625 30V151H26.5625ZM208.639 -3C226.865 -3 241.639 11.7746 241.639 30V151H235.639V30C235.639 15.0883 223.551 3 208.639 3V-3Z" fill="#060B11" mask="url(#path-1-inside-1_3240_25007)"/>
<path d="M0 151.5H273" stroke="#060B11"/>
<g filter="url(#filter0_d_3240_25007)">
<mask id="path-4-inside-2_3240_25007" fill="white">
<path fill-rule="evenodd" clip-rule="evenodd" d="M29 45C23.4772 45 19 49.4772 19 55V109C19 114.523 23.4772 119 29 119H62.7269L70.3423 130L77.9577 119H244C249.523 119 254 114.523 254 109V55C254 49.4772 249.523 45 244 45H29Z"/>
</mask>
<path fill-rule="evenodd" clip-rule="evenodd" d="M29 45C23.4772 45 19 49.4772 19 55V109C19 114.523 23.4772 119 29 119H62.7269L70.3423 130L77.9577 119H244C249.523 119 254 114.523 254 109V55C254 49.4772 249.523 45 244 45H29Z" fill="white"/>
<path d="M62.7269 119L63.5491 118.431L63.2509 118H62.7269V119ZM70.3423 130L69.5201 130.569L70.3423 131.757L71.1645 130.569L70.3423 130ZM77.9577 119V118H77.4337L77.1355 118.431L77.9577 119ZM20 55C20 50.0294 24.0294 46 29 46V44C22.9249 44 18 48.9249 18 55H20ZM20 109V55H18V109H20ZM29 118C24.0294 118 20 113.971 20 109H18C18 115.075 22.9249 120 29 120V118ZM62.7269 118H29V120H62.7269V118ZM61.9047 119.569L69.5201 130.569L71.1645 129.431L63.5491 118.431L61.9047 119.569ZM71.1645 130.569L78.7799 119.569L77.1355 118.431L69.5201 129.431L71.1645 130.569ZM244 118H77.9577V120H244V118ZM253 109C253 113.971 248.971 118 244 118V120C250.075 120 255 115.075 255 109H253ZM253 55V109H255V55H253ZM244 46C248.971 46 253 50.0294 253 55H255C255 48.9249 250.075 44 244 44V46ZM29 46H244V44H29V46Z" fill="#737679" mask="url(#path-4-inside-2_3240_25007)"/>
</g>
<path d="M53.7754 64.6328V70.6885H52.7852V64.6328H53.7754ZM47.4531 71.2598V72.6309H52.7852V71.2598H53.7754V75.7666H46.4629V71.2598H47.4531ZM47.4531 74.9541H52.7852V73.4307H47.4531V74.9541ZM47.6816 65.1914C49.3955 65.1787 50.6396 66.2324 50.6396 67.7812C50.6396 69.3174 49.3955 70.3711 47.6816 70.3711C45.9678 70.3711 44.7236 69.3174 44.7236 67.7812C44.7236 66.2324 45.9678 65.1787 47.6816 65.1914ZM47.6816 66.0293C46.5264 66.0166 45.6885 66.7529 45.7012 67.7812C45.6885 68.8096 46.5264 69.5459 47.6816 69.5459C48.8242 69.5459 49.6621 68.8096 49.6621 67.7812C49.6621 66.7529 48.8242 66.0166 47.6816 66.0293ZM64.408 65.2422V66.0801C64.408 66.9561 64.408 67.9844 64.116 69.3936H65.7664V70.2188H55.4324V69.3936H63.113C63.4177 67.978 63.4177 66.9561 63.4177 66.0801V66.0674H56.74V65.2422H64.408ZM64.4587 71.7803V75.7666H56.7019V71.7803H64.4587ZM57.6921 72.5674V74.9541H63.4685V72.5674H57.6921ZM70.229 68.0986C70.2163 69.9141 71.5239 71.9072 73.1616 72.6816L72.5904 73.4688C71.3208 72.853 70.2481 71.5073 69.7466 69.9775C69.2261 71.6406 68.0899 73.1006 66.8267 73.748L66.2173 72.9609C67.8423 72.1738 69.2388 70.0283 69.2515 68.0986V66.626H66.6236V65.8008H72.7681V66.626H70.229V68.0986ZM75.1421 64.6328V69.2031H77.0337V70.0537H75.1421V75.9189H74.1519V64.6328H75.1421ZM86.7395 64.6328V71.3232H85.7366V69.5459H83.096V70.5107H77.9163V65.4961H83.096V66.4736H85.7366V64.6328H86.7395ZM78.9065 66.3086V69.6982H82.1184V66.3086H78.9065ZM82.9944 71.6533C85.343 71.6533 86.7776 72.4277 86.7776 73.7861C86.7776 75.1318 85.343 75.8936 82.9944 75.8936C80.6458 75.8936 79.2112 75.1318 79.2112 73.7861C79.2112 72.4277 80.6458 71.6533 82.9944 71.6533ZM82.9944 72.4277C81.2679 72.4404 80.1888 72.9355 80.2014 73.7861C80.1888 74.5986 81.2679 75.1064 82.9944 75.1064C84.721 75.1064 85.7874 74.5986 85.7874 73.7861C85.7874 72.9355 84.721 72.4404 82.9944 72.4277ZM83.096 68.708H85.7366V67.2988H83.096V68.708Z" fill="#737679"/>
<path d="M56.583 92.3203V93.8291H53.7266V98.2383H51.8223V93.8291H49.0977V98.2383H47.1787V93.8291H44.3809V92.3203H56.583ZM50.4453 85.3477C53.3018 85.3477 55.3086 86.5342 55.3086 88.3652C55.3086 90.167 53.3018 91.2949 50.4453 91.2949C47.5889 91.2949 45.5967 90.167 45.6113 88.3652C45.5967 86.5342 47.5889 85.3477 50.4453 85.3477ZM50.4453 86.8418C48.6582 86.8418 47.5156 87.3838 47.5303 88.3652C47.5156 89.3027 48.6582 89.8301 50.4453 89.8301C52.2471 89.8301 53.375 89.3027 53.375 88.3652C53.375 87.3838 52.2471 86.8418 50.4453 86.8418ZM62.2596 87.5449C62.2596 89.1416 63.241 90.7676 65.4383 91.4268L64.4861 92.8916C62.992 92.4229 61.9373 91.4634 61.3367 90.2549C60.7288 91.5659 59.6448 92.6206 58.0848 93.1406L57.118 91.6758C59.3299 90.958 60.3553 89.2295 60.3553 87.5449V87.3545H57.616V85.8604H64.9402V87.3545H62.2596V87.5449ZM68.2215 84.9229V94.5615H66.3465V84.9229H68.2215ZM68.573 96.5098V98.0039H59.2859V93.6826H61.1756V96.5098H68.573ZM77.2162 92.2471H75.8393L75.9711 90.2256L74.2865 91.3535L73.598 90.167L75.4145 89.2734L73.598 88.3652L74.2865 87.1787L75.9711 88.3066L75.8393 86.2852H77.2162L77.0844 88.3066L78.7689 87.1787L79.4574 88.3652L77.641 89.2734L79.4574 90.167L78.7689 91.3535L77.0844 90.2256L77.2162 92.2471ZM85.0021 92.2471H83.6252L83.757 90.2256L82.0725 91.3535L81.384 90.167L83.2004 89.2734L81.384 88.3652L82.0725 87.1787L83.757 88.3066L83.6252 86.2852H85.0021L84.8703 88.3066L86.5549 87.1787L87.2434 88.3652L85.427 89.2734L87.2434 90.167L86.5549 91.3535L84.8703 90.2256L85.0021 92.2471ZM92.7881 92.2471H91.4111L91.543 90.2256L89.8584 91.3535L89.1699 90.167L90.9863 89.2734L89.1699 88.3652L89.8584 87.1787L91.543 88.3066L91.4111 86.2852H92.7881L92.6562 88.3066L94.3408 87.1787L95.0293 88.3652L93.2129 89.2734L95.0293 90.167L94.3408 91.3535L92.6562 90.2256L92.7881 92.2471Z" fill="#060B11"/>
<path d="M214.59 86.2852V96.8906H213.257V87.6621H213.198L210.62 89.376V88.043L213.257 86.2852H214.59ZM227.386 85.0693V94.957H226.228V93.6094H223.533V92.7744H226.228V85.0693H227.386ZM227.708 96.832V97.7988H218.45V93.9902H219.607V96.832H227.708ZM216.575 91.1045C219.007 91.0898 222.259 91.0752 225.056 90.7236L225.13 91.5586C223.965 91.7417 222.749 91.8589 221.555 91.9248V94.5029H220.398V91.9834C219.08 92.042 217.827 92.0493 216.736 92.042L216.575 91.1045ZM220.852 85.5967C222.757 85.5967 224.06 86.5049 224.075 87.8672C224.06 89.2588 222.757 90.123 220.852 90.123C218.933 90.123 217.63 89.2588 217.63 87.8672C217.63 86.5049 218.933 85.5967 220.852 85.5967ZM220.852 86.4756C219.578 86.4609 218.714 87.0322 218.728 87.8672C218.714 88.7168 219.578 89.2734 220.852 89.2734C222.083 89.2734 222.962 88.7168 222.976 87.8672C222.962 87.0322 222.083 86.4609 220.852 86.4756Z" fill="#060B11"/>
<defs>
<filter id="filter0_d_3240_25007" x="19" y="45" width="235" height="89" filterUnits="userSpaceOnUse" color-interpolation-filters="sRGB">
<feFlood flood-opacity="0" result="BackgroundImageFix"/>
<feColorMatrix in="SourceAlpha" type="matrix" values="0 0 0 0 0 0 0 0 0 0 0 0 0 0 0 0 0 0 127 0" result="hardAlpha"/>
<feOffset dy="4"/>
<feComposite in2="hardAlpha" operator="out"/>
<feColorMatrix type="matrix" values="0 0 0 0 0 0 0 0 0 0 0 0 0 0 0 0 0 0 0.06 0"/>
<feBlend mode="normal" in2="BackgroundImageFix" result="effect1_dropShadow_3240_25007"/>
<feBlend mode="normal" in="SourceGraphic" in2="effect1_dropShadow_3240_25007" result="shape"/>
</filter>
</defs>
</svg>
