<svg width="37" height="37" viewBox="0 0 37 37" fill="none" xmlns="http://www.w3.org/2000/svg">
<rect width="37" height="37" rx="14" fill="#00AEEF"/>
<path d="M9 18.6973C9 18.553 9.11335 18.4294 9.25761 18.4294L14.1934 18.3984C14.3376 18.3984 14.4613 18.5118 14.4613 18.6663C14.4613 18.6973 14.4613 18.7282 14.4407 18.7694L12.0089 24.8077C11.9676 24.9005 11.8749 24.9726 11.7719 24.9726C11.6997 24.9726 11.6379 24.9417 11.5864 24.9005C11.5864 24.9005 11.5864 24.9004 11.5864 24.8901C10.051 23.2621 9.08243 21.0982 9 18.7076V18.6973Z" fill="white"/>
<path d="M14.234 26.5797L17.1605 19.2946C17.1605 19.2946 17.1605 19.2946 17.1605 19.2843C17.3665 18.7484 17.8921 18.3672 18.4897 18.3672C19.0564 18.3672 19.5511 18.6969 19.7881 19.1709L22.869 26.5179C22.869 26.5179 22.8896 26.59 22.8896 26.6209C22.8896 26.7137 22.8381 26.8064 22.7557 26.8476C22.7557 26.8476 22.7557 26.8476 22.7454 26.8476C21.4883 27.4865 20.056 27.8471 18.5515 27.8574C17.0368 27.8677 15.6148 27.5277 14.3474 26.8991C14.265 26.8579 14.2031 26.7652 14.2031 26.6621C14.2031 26.6312 14.2031 26.6003 14.2237 26.5591L14.234 26.5797Z" fill="white"/>
<path d="M22.5519 18.7066C22.5519 18.7066 22.5312 18.6344 22.5312 18.6035C22.5312 18.4593 22.6549 18.3356 22.7992 18.3356L27.7349 18.3047C27.8792 18.3047 28.0028 18.418 28.0028 18.5623C27.9513 20.9529 27.0136 23.1374 25.5092 24.7758C25.4577 24.817 25.3958 24.8582 25.3134 24.8582C25.2001 24.8582 25.1073 24.7861 25.0661 24.6934L22.5519 18.6963V18.7066Z" fill="white"/>
<path d="M27.216 15.5948L21.4353 15.636H21.4147C21.3116 15.636 21.2292 15.5638 21.1983 15.4711L20.7346 14.3582C20.0957 12.7199 19.7969 11.1433 19.7969 9.711V9.26791C19.7969 9.12365 19.9102 9 20.0545 9H20.0957C23.5373 9.58735 26.3401 12.0089 27.4633 15.2341C27.4633 15.2341 27.4736 15.2856 27.4736 15.3165C27.4736 15.4608 27.3602 15.5844 27.2057 15.5844L27.216 15.5948Z" fill="white"/>
<path d="M16.2156 14.3842L15.7725 15.497C15.7416 15.5795 15.6694 15.6413 15.5767 15.6619H15.5561H15.5355L9.74447 15.7031C9.60021 15.7031 9.47656 15.5898 9.47656 15.4352C9.47656 15.4043 9.47656 15.3734 9.48687 15.3528H9.47656C10.5585 12.1275 13.3407 9.64419 16.772 9.01562C16.772 9.01562 16.7926 9.01562 16.8029 9.01562C16.9472 9.01562 17.0708 9.12897 17.0708 9.27323V9.71632C17.0914 11.1589 16.8132 12.7252 16.2053 14.3739L16.2156 14.3842Z" fill="white"/>
</svg>
