<svg width="37" height="37" viewBox="0 0 37 37" fill="none" xmlns="http://www.w3.org/2000/svg">
<rect width="37" height="37" rx="14" fill="#E72410"/>
<path d="M6.09606 18.3542C6.05131 18.3798 6.05131 18.4181 6.09606 18.4501H6.08967L9.94418 20.9996L11.05 15.8047L6.09606 18.3542Z" fill="white"/>
<path d="M28.9336 15.7891H27.9556C27.9044 15.7891 27.8277 15.8082 27.783 15.8338L22.8929 18.3514C22.8482 18.3769 22.8482 18.4153 22.8929 18.4472L26.6835 20.9456C26.7283 20.9712 26.805 20.9967 26.8497 20.9967H27.8213C27.8725 20.9967 27.8789 20.9712 27.8341 20.9456L23.9604 18.4025L28.9336 15.8402C28.9783 15.8146 28.9719 15.7955 28.9208 15.7955L28.9336 15.7891Z" fill="white"/>
<path d="M26.8383 15.7891H20.0434L18.9375 20.9903H25.7324C25.7836 20.9903 25.79 20.9648 25.7452 20.9392L21.8779 18.3961L26.8447 15.8338C26.8894 15.8082 26.883 15.7891 26.8319 15.7891H26.8383Z" fill="white"/>
<path d="M31.0195 15.7891H30.0415C29.9904 15.7891 29.9137 15.8082 29.8689 15.8338L24.9789 18.3514C24.9341 18.3769 24.9341 18.4153 24.9789 18.4472L28.7695 20.9392C28.8142 20.9648 28.8909 20.9903 28.9357 20.9903H29.9137C29.9648 20.9903 29.9712 20.9648 29.9265 20.9392L26.0528 18.3961L31.0259 15.8338C31.0707 15.8082 31.0643 15.7891 31.0131 15.7891H31.0195Z" fill="white"/>
<path d="M26.5377 12.3906H10.5444C9.64946 12.3906 9.02942 12.9529 8.8824 13.6494C8.7993 14.0328 8.94632 14.3715 9.24036 14.6015L14.987 18.397L26.5505 12.4354C26.5953 12.4098 26.5889 12.3906 26.5377 12.3906Z" fill="white"/>
<path d="M23.9963 24.3395L14.9833 18.3906L7.61941 22.1862C7.22948 22.4162 6.94183 22.7548 6.85873 23.1382C6.71171 23.8283 7.09524 24.3906 7.99016 24.3906H23.9835C24.0346 24.3906 24.041 24.3651 23.9963 24.3395Z" fill="white"/>
</svg>
