<svg width="37" height="37" viewBox="0 0 37 37" fill="none" xmlns="http://www.w3.org/2000/svg">
<rect width="37" height="37" rx="14" fill="#FABE00"/>
<path d="M22.2105 10L18.5516 11.7843L14.9062 10L18.5516 16.7434L22.2105 10Z" fill="white"/>
<path d="M23.4894 15.2227L23.4354 15.1703L26.0412 14.1076V10.5391L21.5047 12.4152C21.5047 12.4152 19.061 16.9414 18.9935 17.0332C20.9242 17.2563 22.3553 18.8175 22.3553 20.7067C22.3553 22.7533 20.6541 24.4195 18.5479 24.4195C16.4417 24.4195 14.7406 22.7533 14.7406 20.7067C14.7406 18.8175 16.1852 17.2563 18.1024 17.0332C18.0484 16.9283 15.6046 12.4152 15.6046 12.4152L11.0817 10.5391V14.0945L13.6739 15.1571L13.6199 15.2096C11.9863 16.5872 11.0547 18.5945 11.0547 20.6936C11.0547 24.7213 14.4165 27.988 18.5479 27.988C22.6794 27.988 26.0547 24.7213 26.0547 20.6936C26.0547 18.5945 25.1096 16.5872 23.4894 15.2096V15.2227Z" fill="white"/>
</svg>
