<svg width="37" height="37" viewBox="0 0 37 37" fill="none" xmlns="http://www.w3.org/2000/svg">
<rect width="37" height="37" rx="14" fill="#007DBA"/>
<path d="M15.9351 26.7728C15.4096 27.0858 14.9337 27.2712 14.4331 27.2712C13.1421 27.2712 12.0621 26.2208 12 24.9521L14.5158 23.4609L18.4302 25.2034L15.9351 26.7769V26.7728Z" fill="white" fill-opacity="0.5"/>
<path d="M17.4299 20.363L15.5595 19.5391C14.7278 19.1684 13.9375 18.8554 13.9375 17.9409C13.9375 17.4672 14.0823 17.2159 14.3099 16.9688L18.2657 18.7029L17.2892 19.2673C17.0161 19.432 16.8299 19.5762 16.8299 19.7863C16.8299 20.0087 17.0864 20.2023 17.434 20.3589" fill="white" fill-opacity="0.5"/>
<path d="M19.2689 11.7658L17.3531 12.9233C17.1793 13.0263 16.9517 13.1911 16.9517 13.4423C16.9517 13.7348 17.3986 13.9531 17.7917 14.1385L15.3917 13.0881C14.6841 12.7791 13.9766 12.4249 13.9766 11.5763C13.9766 11.2179 14.08 10.9296 14.2455 10.6825L19.4344 7.53125C20.0592 7.88138 20.6592 8.58989 20.6592 9.54143C20.6592 10.5589 20.142 11.2427 19.2689 11.7658Z" fill="white" fill-opacity="0.5"/>
<path d="M23.3499 15.5002L22.874 15.7679L18.9141 14.0255L23.5195 11.2656C24.1402 11.624 24.7526 12.3284 24.7526 13.2758C24.7526 14.2932 24.2478 14.9976 23.354 15.4961" fill="white" fill-opacity="0.5"/>
<path d="M20.0036 18.8438L22.3498 19.8694C23.227 20.2566 23.496 20.7221 23.496 21.2988C23.496 21.6325 23.3098 21.962 23.0408 22.1886L19.1016 20.4461L19.7678 20.0754C20.3346 19.7665 20.5208 19.577 20.5208 19.371C20.5208 19.165 20.3884 19.0168 20.0078 18.8438" fill="white" fill-opacity="0.5"/>
<path d="M24.1858 27.46C23.1886 26.6979 22.1211 26.1789 20.8259 25.594L14.8508 22.9618C13.3488 22.2986 12.3516 21.4088 12.3516 19.9136C12.3516 18.4183 13.055 17.7592 13.9777 17.1825L14.3088 16.9766C14.0812 17.2237 13.9364 17.4709 13.9364 17.9487C13.9364 18.8632 14.7267 19.1721 15.5584 19.547L22.51 22.5993C23.7183 23.1142 24.8272 24.0039 24.8272 25.5157C24.8272 26.3519 24.5127 27.0934 24.1817 27.4682" fill="white"/>
<path d="M23.475 21.921L23.0405 22.1888C23.3095 21.9622 23.4957 21.6286 23.4957 21.299C23.4957 20.7182 23.2267 20.2569 22.3495 19.8697L14.9138 16.6114C13.4117 15.9523 12.4766 15.0955 12.4766 13.6085C12.4766 12.2368 13.1634 11.3429 14.2476 10.6797C14.0821 10.9268 13.9786 11.2152 13.9786 11.5736C13.9786 12.4221 14.6862 12.7722 15.3938 13.0853L22.6185 16.2612C23.9343 16.8379 24.9977 17.7153 24.9977 19.3094C24.9977 20.5535 24.4143 21.3443 23.4791 21.921" fill="white"/>
</svg>
