<svg width="37" height="37" viewBox="0 0 37 37" fill="none" xmlns="http://www.w3.org/2000/svg">
<rect width="37" height="37" rx="14" fill="#FED100"/>
<path fill-rule="evenodd" clip-rule="evenodd" d="M9.0896 15.1094C6.72686 15.1094 4.8125 16.5133 4.8125 18.2446C4.8125 19.3572 5.60593 20.3342 6.79704 20.8914L6.39351 22.288C6.37791 22.3314 6.39156 22.3767 6.4247 22.4074C6.44809 22.4291 6.47928 22.44 6.51242 22.44C6.53777 22.44 6.56311 22.4309 6.5865 22.4147L8.31957 21.3292C8.57105 21.3617 8.82837 21.3816 9.0896 21.3816C11.4504 21.3816 13.3667 19.9778 13.3667 18.2464C13.3667 16.5151 11.4504 15.1094 9.0896 15.1094Z" fill="#2F2725"/>
<path d="M16.9678 20.8475V22.8719H15.4141V15.4074H16.5097L16.7007 15.8814C17.0302 15.5756 17.5312 15.25 18.3402 15.25C19.8627 15.25 20.586 16.3065 20.5743 18.0144C20.5743 19.8018 19.4572 20.947 17.8606 20.947C17.5526 20.947 17.3187 20.9271 16.9678 20.8475ZM16.9678 16.6123V19.8416C17.0536 19.8506 17.266 19.8705 17.4688 19.8705C18.5761 19.8705 19.0011 19.1505 19.0011 18.0144C19.0011 17.0175 18.7145 16.4151 17.8314 16.4151C17.5448 16.4151 17.2251 16.4947 16.9697 16.6123H16.9678Z" fill="#2F2725"/>
<path d="M23.9583 17.5096H24.8414V17.3323C24.8414 16.7407 24.4788 16.4639 23.8511 16.4639C23.3715 16.4639 22.7555 16.5924 22.2545 16.8203L21.8295 15.8524C22.3832 15.496 23.2331 15.25 23.9895 15.25C25.4789 15.25 26.2879 15.9809 26.2879 17.3739V20.8004H25.1923L25.0325 20.3463C24.4047 20.7715 23.8297 20.9488 23.3092 20.9488C22.1707 20.9488 21.5312 20.3174 21.5312 19.25C21.5312 18.1139 22.3832 17.5114 23.9564 17.5114L23.9583 17.5096ZM24.8414 19.4164V18.4287H24.1279C23.3306 18.4287 22.9251 18.6946 22.9251 19.2283C22.9251 19.6335 23.1493 19.8307 23.6055 19.8307C24.0305 19.8307 24.5743 19.6335 24.8395 19.4164H24.8414Z" fill="#2F2725"/>
<path d="M30.9908 20.247C30.4488 21.5894 29.7996 22.5681 28.8522 23.1109L27.895 22.2913C28.4487 21.8463 28.8425 21.4121 29.1817 20.8295L27.1172 15.6066L28.6592 15.2212L29.979 19.4582L31.2871 15.2031L32.8096 15.5975L30.9908 20.2488V20.247Z" fill="#2F2725"/>
</svg>
