<svg width="37" height="37" viewBox="0 0 37 37" fill="none" xmlns="http://www.w3.org/2000/svg">
<rect width="37" height="37" rx="14" fill="#001655"/>
<path d="M10.1334 14.5312H8.38702L5.62882 17.6661V14.5312H4.23438V21.3714H5.62882V18.2276L8.47808 21.3714H10.2245L7.12455 17.9508L10.1334 14.5312Z" fill="white"/>
<path d="M33.2307 21.3714L31.1365 19.0048L33.1683 16.6391H31.6644L29.8934 18.6871V14.5312H28.5V21.3714H29.8934V19.3185L31.6981 21.3714H33.2307Z" fill="white"/>
<path d="M13.5641 16.4733C12.9779 16.4733 12.4776 16.7191 12.0663 17.0587V14.5312H10.6719V19.0357C10.6719 20.3914 11.5906 21.5273 13.3196 21.5273C14.8736 21.5273 15.9673 20.4793 15.9673 19.0098C15.9673 17.6192 15.0271 16.4723 13.5641 16.4723V16.4733ZM13.3186 20.2945C12.5983 20.2945 12.0131 19.734 11.9937 19.0357C11.9937 19.0238 11.9937 19.0118 11.9937 18.9998C11.9937 18.8519 12.0193 18.7101 12.0663 18.5782C12.2454 18.0707 12.7385 17.7051 13.3196 17.7051C14.0521 17.7051 14.6455 18.2845 14.6455 18.9998C14.6455 19.7151 14.0521 20.2945 13.3196 20.2945H13.3186Z" fill="white"/>
<path d="M25.823 16.4688C25.1509 16.4688 24.625 16.7105 24.2148 17.0691V16.6176H22.8203V21.3688H24.2148V18.7045C24.2148 18.1501 24.6751 17.7005 25.2429 17.7005C25.8108 17.7005 26.2711 18.1501 26.2711 18.7045V21.3688H27.6738V18.3249C27.6738 18.3069 27.6738 18.2879 27.6738 18.2699C27.6738 17.2699 26.8246 16.4688 25.822 16.4688H25.823Z" fill="white"/>
<path d="M19.3014 16.4766C17.7299 16.4766 16.625 17.5245 16.625 18.994C16.625 20.3847 17.5765 21.5315 19.0548 21.5315C19.7198 21.5315 20.3572 21.1849 20.7183 20.7163V21.3737H21.9787V18.995H21.9675C21.9746 18.9781 21.9787 18.9681 21.9787 18.9681C21.9787 17.6124 21.0498 16.4766 19.3024 16.4766H19.3014ZM19.33 20.2868C18.5975 20.2868 18.0041 19.7073 18.0041 18.992C18.0041 18.2768 18.5975 17.6973 19.33 17.6973C20.0625 17.6973 20.6559 18.2768 20.6559 18.992C20.6559 19.7073 20.0625 20.2868 19.33 20.2868Z" fill="white"/>
</svg>
