<svg width="37" height="37" viewBox="0 0 37 37" fill="none" xmlns="http://www.w3.org/2000/svg">
<rect width="37" height="37" rx="14" fill="#D7000F"/>
<path d="M17.712 16.1226H16.7783V19.1201H17.3159C17.5677 19.1201 17.712 18.97 17.712 18.7748V17.8565H18.5806V17.1184H17.712V16.1226ZM18.9626 19.7156H25.2723V19.0676H18.9626V19.7156ZM20.9942 21.1243V20.1685H19.9671V21.3044C19.9671 21.6222 20.1991 21.8824 20.7876 21.8824H24.5933V21.2344H21.1272C21.0536 21.2344 20.9942 21.1843 20.9942 21.1243ZM10.129 16.7857H9.10474V17.4137H10.129V17.9591H9.10474V18.5822H10.129V19.2152H10.6694C10.9184 19.2152 11.0627 19.0651 11.0627 18.8699V16.1226H10.129V16.7857ZM9.00571 19.2852C7.95598 19.2852 7.10148 19.8882 7.09865 20.6414C7.09865 21.3945 7.95598 21.995 9.00571 21.9975C10.0526 21.9975 10.9099 21.3945 10.9099 20.6414C10.9099 19.8882 10.0526 19.2852 9.00571 19.2852ZM9.00571 21.3344C8.49075 21.3344 8.07765 21.0217 8.07765 20.6389C8.07765 20.256 8.49075 19.9433 9.00571 19.9433C9.52068 19.9433 9.93095 20.256 9.93095 20.6389C9.93095 21.0192 9.51785 21.3344 9.00571 21.3344ZM22.1203 18.6547C23.1842 18.6547 24.0585 18.0642 24.0585 17.3261C24.0585 16.588 23.1842 16 22.1203 16C21.0536 16 20.1821 16.5905 20.1793 17.3261C20.1793 18.0667 21.0536 18.6522 22.1203 18.6547ZM22.1203 16.6355C22.6664 16.6355 23.1021 16.9483 23.1021 17.3261C23.1021 17.7039 22.6664 18.0167 22.1203 18.0167C21.5742 18.0167 21.1357 17.7039 21.1357 17.3261C21.1357 16.9483 21.5714 16.638 22.1203 16.6355ZM8.98025 16.3403V16.3103H5.65845V16.9483H7.88807C7.69284 17.749 6.65725 18.407 5.53112 18.6647L5.5 18.6722L5.67543 19.2177L5.70655 19.2127C7.38726 18.9099 8.918 18.0492 8.98025 16.3403ZM13.4706 21.3019C13.4706 21.6197 13.7026 21.8799 14.294 21.8799H16.8943C17.4828 21.8799 17.7148 21.6172 17.7148 21.3019V19.5705H13.4734V21.3019H13.4706ZM14.4666 20.211H16.7245V21.1243C16.7245 21.1843 16.6651 21.2344 16.5915 21.2344H14.5996C14.526 21.2344 14.4666 21.1868 14.4666 21.1243V20.211ZM16.1841 18.6247L16.2011 18.6172V18.0217L16.1473 18.0492C15.9209 18.1718 15.5871 18.2143 15.157 18.2143H13.6545C13.581 18.2143 13.5215 18.1643 13.5215 18.1043V16.3103H12.4548V18.2819C12.4548 18.5972 12.6869 18.8624 13.2754 18.8624H15.0183C15.4965 18.8624 15.8643 18.7948 16.1812 18.6247H16.1841ZM28.8658 18.1168C28.8658 17.749 28.6734 17.4187 28.3508 17.201H28.9337V16.623H27.8613V16.1201H26.8625V16.623H25.7845V17.201H26.3815C26.0561 17.4187 25.8637 17.749 25.8637 18.1168C25.8665 18.7748 26.523 19.3028 27.3661 19.3028C28.1923 19.3028 28.8658 18.7723 28.8658 18.1168ZM27.3633 18.7323C26.9417 18.7323 26.6616 18.4545 26.6616 18.1068C26.6616 17.7565 26.9417 17.4787 27.3633 17.4787C27.7821 17.4787 28.0622 17.759 28.065 18.1068C28.065 18.4545 27.7821 18.7323 27.3633 18.7323ZM30.6144 16.1201V17.2185H30.1786V16.1201H29.293V19.0626H29.7995C30.04 19.0626 30.1786 18.9174 30.1786 18.7298V17.9141H30.6144V19.0626H31.118C31.3585 19.0626 31.4972 18.9174 31.4972 18.7298V16.1201H30.6115H30.6144ZM29.5024 19.3128C28.4555 19.3128 27.5982 19.9083 27.5982 20.6539C27.5982 21.3995 28.4555 21.995 29.5024 21.995C30.5521 21.995 31.4095 21.3995 31.4095 20.6539C31.4095 19.9083 30.5521 19.3128 29.5024 19.3128ZM29.5024 21.3495C28.9846 21.3495 28.5658 21.0342 28.5658 20.6539C28.5658 20.2736 28.9846 19.9583 29.5024 19.9583C30.0202 19.9583 30.4389 20.2711 30.4418 20.6539C30.4418 21.0367 30.023 21.3495 29.5024 21.3495Z" fill="white"/>
</svg>
