<svg width="37" height="37" viewBox="0 0 37 37" fill="none" xmlns="http://www.w3.org/2000/svg">
<rect width="37" height="37" rx="14" fill="#D7D7D7"/>
<path d="M15.3888 15.6706C14.7908 15.1188 14.0607 14.6661 13.1827 14.3578C12.7409 14.202 12.0132 13.9766 11.3923 13.9766C10.8609 13.9766 10.405 14.1455 10.2892 14.6768C10.0683 15.6886 10.1718 24.3842 10.2506 25.3903C10.3057 26.129 10.6178 26.5612 11.4859 26.5448C17.5414 26.4472 19.1307 19.1193 15.3888 15.6714V15.6706Z" fill="url(#paint0_linear_4517_40207)"/>
<path d="M22.2937 8.68748C21.7492 8.18731 21.0815 7.7757 20.2905 7.49692C19.8881 7.35424 19.2286 7.14844 18.6643 7.14844C18.1773 7.14844 17.765 7.30505 17.6582 7.78718C17.4595 8.70306 17.5539 16.5975 17.6237 17.5134C17.6763 18.1825 17.9572 18.5736 18.7456 18.563C24.246 18.4703 25.6898 11.8181 22.2937 8.68748Z" fill="url(#paint1_linear_4517_40207)"/>
<path d="M24.7121 16.0264C24.0296 15.3983 23.1877 14.8793 22.1948 14.5308C21.6872 14.3504 20.8568 14.0938 20.1513 14.0938C19.5403 14.0938 19.0187 14.2873 18.8865 14.894C18.6319 16.0477 18.7543 25.9658 18.843 27.1162C18.9103 27.9616 19.261 28.4486 20.2491 28.4339C27.1612 28.324 28.9788 19.9621 24.7113 16.0272L24.7121 16.0264Z" fill="url(#paint2_linear_4517_40207)"/>
<defs>
<linearGradient id="paint0_linear_4517_40207" x1="16.6149" y1="20.5785" x2="9.08809" y2="20.5061" gradientUnits="userSpaceOnUse">
<stop offset="0.1" stop-color="#F4791F"/>
<stop offset="0.27" stop-color="#F1731F"/>
<stop offset="0.49" stop-color="#E86222"/>
<stop offset="0.74" stop-color="#DB4725"/>
<stop offset="1" stop-color="#C9242B"/>
</linearGradient>
<linearGradient id="paint1_linear_4517_40207" x1="18.3033" y1="13.3666" x2="24.9989" y2="13.431" gradientUnits="userSpaceOnUse">
<stop stop-color="#13B1E7"/>
<stop offset="1" stop-color="#0060AF"/>
</linearGradient>
<linearGradient id="paint2_linear_4517_40207" x1="19.1783" y1="20.516" x2="29.0746" y2="20.6111" gradientUnits="userSpaceOnUse">
<stop stop-color="#8DC63F"/>
<stop offset="0.14" stop-color="#87C340"/>
<stop offset="0.32" stop-color="#76BE42"/>
<stop offset="0.52" stop-color="#5BB447"/>
<stop offset="0.74" stop-color="#35A74E"/>
<stop offset="0.97" stop-color="#069756"/>
<stop offset="1" stop-color="#009558"/>
</linearGradient>
</defs>
</svg>
