<svg width="37" height="37" viewBox="0 0 37 37" fill="none" xmlns="http://www.w3.org/2000/svg">
<rect width="37" height="37" rx="14" fill="#00326C"/>
<mask id="mask0_4517_39440" style="mask-type:luminance" maskUnits="userSpaceOnUse" x="9" y="15" width="9" height="12">
<path d="M9 20.8702C9 24.0461 11.5242 26.6265 14.6402 26.6265C15.6375 26.6265 16.5727 26.3604 17.3879 25.9001V22.1836C16.912 22.8213 16.1589 23.2352 15.3147 23.2352C13.8747 23.2352 12.7077 22.0443 12.7077 20.5746C12.7077 19.882 12.9726 19.2443 13.3988 18.7713C12.9477 17.9267 12.6953 16.9638 12.6953 15.9375C12.6953 15.7813 12.7036 15.6208 12.7119 15.4688C10.5476 16.2712 9 18.3912 9 20.8787" fill="white"/>
</mask>
<g mask="url(#mask0_4517_39440)">
<path d="M17.1375 13.9965L7.13281 15.7969L9.25691 28.091L19.2616 26.2906L17.1375 13.9965Z" fill="white"/>
</g>
<mask id="mask1_4517_39440" style="mask-type:luminance" maskUnits="userSpaceOnUse" x="12" y="10" width="13" height="9">
<path d="M12.6875 15.9252C12.6875 16.9514 12.9441 17.9143 13.391 18.7589C13.8669 18.231 14.5496 17.9016 15.3069 17.9016C15.6007 17.9016 15.8821 17.9523 16.1469 18.0452C15.8531 17.5933 15.6835 17.0485 15.6835 16.4657C15.6835 14.882 16.9415 13.5982 18.4932 13.5982C19.6271 13.5982 20.6037 14.2823 21.0465 15.2663C21.4644 15.165 21.903 15.1101 22.3541 15.1101C23.0327 15.1101 23.6824 15.2326 24.2824 15.4564C24.0466 12.403 21.543 10 18.4932 10C15.2862 10 12.6875 12.6564 12.6875 15.9252Z" fill="white"/>
</mask>
<g mask="url(#mask1_4517_39440)">
<path d="M22.9291 6.19474L9.92969 11.0234L14.0454 22.5639L27.0448 17.7352L22.9291 6.19474Z" fill="white"/>
</g>
<mask id="mask2_4517_39440" style="mask-type:luminance" maskUnits="userSpaceOnUse" x="19" y="15" width="9" height="12">
<path d="M21.0494 15.2656C21.215 15.6331 21.306 16.0385 21.306 16.465C21.306 17.0478 21.1363 17.5926 20.8425 18.0445C21.1074 17.9558 21.3888 17.9051 21.6826 17.9051C23.1226 17.9051 24.2896 19.0961 24.2896 20.5658C24.2896 22.0354 23.1226 23.2264 21.6826 23.2264C20.8384 23.2264 20.0853 22.8167 19.6094 22.179V25.8954C20.4246 26.3558 21.3598 26.6218 22.3571 26.6218C25.4731 26.6218 27.9973 24.0457 27.9973 20.8656C27.9973 17.6855 25.4731 15.1094 22.3571 15.1094C21.906 15.1094 21.4715 15.1643 21.0494 15.2656Z" fill="white"/>
</mask>
<g mask="url(#mask2_4517_39440)">
<path d="M19.8613 13.6466L17.6797 26.2734L27.7414 28.0841L29.923 15.4572L19.8613 13.6466Z" fill="white"/>
</g>
</svg>
