<svg width="37" height="37" viewBox="0 0 37 37" fill="none" xmlns="http://www.w3.org/2000/svg">
<rect width="37" height="37" rx="14" fill="#00A5E3"/>
<path d="M19.2293 19.6136C18.5323 20.3878 17.6596 21.0093 16.654 21.3938L16.074 21.615V16.2112L16.6433 16.4324C17.6543 16.8169 18.5269 17.4331 19.2293 18.2021C19.7295 17.4068 20.0381 16.4851 20.1019 15.4844C20.2616 12.8931 18.6227 10.5178 16.372 9.69089L14.5203 9.07994C13.6796 8.80606 12.791 9.25901 12.5143 10.0859L8.58221 21.7519C8.3002 22.5841 8.76844 23.4794 9.60914 23.7533L18.5269 26.7027C19.4315 25.7442 20.0221 24.4801 20.1126 23.0634C20.1924 21.8046 19.8572 20.6143 19.2293 19.6136ZM14.0787 15.8899V21.9415H13.1954V15.8899H14.0787Z" fill="white"/>
<path d="M27.3866 13.3321L19.2031 10.625C20.2992 11.8153 20.975 13.3954 20.9803 15.1281C20.9803 16.4975 20.5493 17.809 19.7991 18.9097C20.5546 20 20.9856 21.3114 20.9909 22.6808C20.9909 24.3188 20.395 25.8198 19.4053 26.989L22.4808 28.0055C23.3215 28.2847 24.2101 27.8265 24.4868 26.9943L28.4189 15.3335C28.6956 14.5067 28.2273 13.606 27.392 13.3321M25.2157 21.9223H24.109L21.8316 18.8992L24.1462 15.8708H25.2583L22.9437 18.9045L25.2104 21.9223H25.2157Z" fill="white"/>
<path d="M18.715 18.9168C18.2202 18.3374 17.6136 17.8529 16.9219 17.5V20.3441C17.6136 19.9859 18.2202 19.4961 18.715 18.9168Z" fill="white"/>
</svg>
