<svg width="37" height="37" viewBox="0 0 37 37" fill="none" xmlns="http://www.w3.org/2000/svg">
<rect width="37" height="37" rx="14" fill="#008E90"/>
<path d="M22.3948 20.8738C22.3444 20.5641 22.2588 20.2695 22.1379 19.9902C21.7502 19.1523 21.2163 18.4465 20.4055 17.9691C19.1515 17.2328 17.6356 17.2378 16.3967 17.9945C15.8376 18.3347 15.3743 18.8273 15.0772 19.4215C14.9765 19.6195 14.8959 19.8328 14.8254 20.0461C14.498 21.0922 14.5081 22.5039 15.0973 23.4586C15.2887 23.7735 15.5657 24.0375 15.9082 24.1696C16.2506 24.3016 16.6535 24.2864 16.9557 24.0883C17.3485 23.8344 17.419 23.3418 17.3485 22.9051C17.2579 22.3516 17.1873 21.8031 17.3888 21.2547C17.4543 21.082 17.5449 20.9144 17.6809 20.7824C17.7615 20.7062 17.8572 20.6402 17.9579 20.5894C18.1694 20.4828 18.4162 20.4371 18.6478 20.4777C19.0608 20.5437 19.3932 20.8637 19.5795 21.2445C19.7609 21.6203 19.8112 22.0469 19.8314 22.4684C19.917 24.2914 19.4839 26.1856 19.0256 27.9376C18.9802 28.1204 18.9299 28.2981 18.8795 28.4759C18.8392 28.613 18.7687 28.7907 18.8594 28.9278C18.8997 28.9837 18.9551 29.0243 19.0205 29.0497C19.2874 29.1614 19.509 28.9938 19.6853 28.811C20.7479 27.7344 21.4278 26.3481 21.8912 24.9161C22.0674 24.3828 22.2135 23.8395 22.3142 23.286C22.4502 22.5293 22.5308 21.666 22.3948 20.8687" fill="white"/>
<path d="M29.9914 12.4314C29.9914 12.1571 29.7496 11.9794 29.4928 11.9845C29.2309 11.9946 28.9892 12.1317 28.7474 12.2232C24.0789 14.0107 18.816 14.3509 13.8957 13.64C13.0546 13.5181 12.2035 13.3454 11.3524 13.2134C10.8236 13.1321 10.2998 13.0103 9.76596 12.9696C9.3127 12.9341 8.74361 12.9189 8.37597 13.2388C7.89249 13.6603 7.92271 14.4626 8.1997 14.9908C8.53209 15.6255 9.11126 16.1029 9.71056 16.4634C10.2948 16.8138 10.9948 17.1896 11.6898 17.1439C13.5683 17.022 15.4468 16.8392 17.3152 16.5955C20.5032 16.1791 23.8422 15.783 26.8387 14.5388C27.8157 14.1325 28.7827 13.6247 29.6237 12.9646C29.7748 12.8478 29.9964 12.6548 29.9964 12.4314" fill="white"/>
<path d="M16.6066 10.8211C16.6066 11.8418 17.4275 12.6696 18.4448 12.6696C19.4621 12.6696 20.278 11.8418 20.278 10.8211C20.278 10.6688 20.2427 10.5164 20.1773 10.3793C20.0211 10.0442 19.8449 9.87657 19.86 9.4754C19.8801 8.93203 19.1902 8.92188 18.8175 8.92188C18.4096 8.92188 17.9815 8.97773 17.6138 9.16563C17.3217 9.31289 17.0699 9.54141 16.8937 9.82071C16.7124 10.1051 16.6116 10.4402 16.6016 10.7805C16.6016 10.7957 16.6016 10.811 16.6016 10.8211" fill="white"/>
</svg>
