<svg width="37" height="37" viewBox="0 0 37 37" fill="none" xmlns="http://www.w3.org/2000/svg">
<rect width="37" height="37" rx="14" fill="#7C7266"/>
<path d="M29.6241 18.7222L29.4241 18.5903C28.7454 17.8889 27.8017 17.5831 26.5389 17.6616C25.4871 17.729 24.6542 18.1611 24.0161 18.5623C24.0161 18.5511 24.0161 18.5426 24.0161 18.5314C24.0161 18.1891 24.054 17.8188 24.0891 17.4596C24.1243 17.0949 24.1648 16.7217 24.1648 16.371C24.1648 16.0203 24.127 15.6696 24.0053 15.3778C23.9755 15.302 23.9079 15.2599 23.8241 15.2599C23.4834 15.2683 22.8209 15.5096 22.6587 15.6555L22.5722 15.8547C22.5668 16.2447 22.483 17.3362 22.3991 17.468C22.4018 17.4624 22.3559 17.5999 22.3559 17.5999C22.2126 19.1571 22.2099 20.5235 22.3423 21.6991C22.3586 21.8169 22.5749 21.9937 22.7452 22.0582C22.9291 22.1284 23.5078 21.9685 23.8403 21.8394C23.8349 21.8394 23.9647 21.8197 23.9647 21.8197C24.0702 21.8085 24.1324 21.7159 24.127 21.5925L24.1351 21.2558C24.3757 20.2429 25.3492 19.0308 26.4984 18.8485C27.15 18.7418 27.6638 18.9158 28.0694 19.3731C28.1234 19.4545 28.2424 20.1868 27.8152 21.0229C27.4961 21.643 26.858 22.1677 26.017 22.4931C25.2221 22.8074 24.346 22.9336 23.2671 22.8943C23.2211 22.8635 22.2558 22.1845 22.2558 22.1845C21.3987 21.5588 20.3333 20.7816 19.368 20.4028C19.1976 20.3355 18.8948 20.0718 18.7109 19.9175L18.6109 19.8333C18.0538 19.3703 16.9939 18.638 16.1448 18.0488C16.1448 18.0488 15.7609 17.7823 15.6879 17.729C15.6879 17.6953 15.6879 17.628 15.6879 17.628C15.7122 17.5999 16.2476 17.2688 16.2476 17.2688C16.9966 16.8143 17.3427 16.5926 17.4157 16.4776C17.3995 16.4973 17.5158 16.4159 17.5158 16.4159C17.5239 16.4131 19.3707 15.3273 19.3707 15.3273C21.1526 14.3116 23.1698 13.1584 24.2297 12.0221L24.2811 11.8481L24.3054 11.6938C24.3757 11.4497 24.3784 11.2645 24.3217 11.0485C24.3054 10.9868 24.2514 10.9138 24.1783 10.9026C23.3509 10.8156 22.2829 11.3319 21.3121 12.2774C21.0931 12.4907 20.9092 12.5945 20.7146 12.7039L20.5658 12.7909C19.4951 13.4222 17.0831 14.9765 15.8177 15.8155C15.9015 14.407 16.153 12.4009 16.4612 10.7314L16.4261 10.5322L16.2963 10.2797L16.1989 10.1002L16.1719 10.0917C15.9204 9.95987 15.7149 10.0132 15.5635 10.0525L15.312 10.1479L14.974 10.2741C14.9064 10.2881 14.8605 10.3302 14.8361 10.3976C14.2331 11.9099 13.7302 14.3986 13.6112 16.3878C12.4052 15.5938 11.2912 15.0214 10.745 14.7437L10.7288 14.7352L10.6639 14.7212C10.4665 14.696 10.2285 14.5445 9.99871 14.3986C9.97437 14.3845 9.53903 14.0899 9.53903 14.0899L8.8387 13.6242L8.65483 13.5793C8.35469 13.6326 7.77604 14.0366 7.60569 14.3116C7.58406 14.3481 7.57324 14.3873 7.57324 14.4266C7.57324 14.4855 7.58947 14.5416 7.60569 14.6006L7.63543 14.7493L7.66788 14.8391C8.00317 15.1954 8.85222 15.7902 9.68234 16.2532L10.645 16.7834L12.1186 17.6195L12.3701 17.8272L12.5431 17.931C12.5431 17.931 12.5621 17.9422 12.5756 17.9506C12.1835 18.2228 9.89325 19.808 9.89325 19.808L8.48448 20.7788C8.35199 20.8742 7.79497 21.1323 7.67059 21.1828C7.36504 21.3119 7.13249 21.5111 7.03786 21.7244L7 21.8085L7.03786 21.8646L7.14601 21.9488L7.28933 22.047L7.44616 22.1564L7.59217 22.1817C7.84094 22.1901 8.20597 22.0442 8.89278 21.7328C9.52281 21.4438 11.2344 20.372 11.9672 19.9146L12.2782 19.7211C12.4079 19.7323 12.5486 19.62 12.6756 19.519C12.8217 19.3984 13.1407 19.1936 13.3354 19.1038C13.3408 19.1038 13.4517 19.0365 13.5571 18.9775C13.5571 19.0112 13.5571 19.0645 13.5571 19.0645C13.5896 21.3877 13.7167 23.0767 13.9627 24.3786V24.401L13.9898 24.4543C14.1087 24.6367 14.2466 25.1894 14.3683 25.6748L14.6468 26.6456L14.7253 26.7354C14.8848 26.8476 15.3688 27.0412 15.6933 27.002L15.7744 26.9907L15.8258 26.8729C15.8528 26.727 15.8636 26.5839 15.8636 26.4268C15.8636 26.25 15.8501 26.0536 15.8366 25.8151L15.815 25.4644C15.7122 23.8427 15.6095 21.4999 15.6095 19.9427V19.8193C15.8771 19.9904 17.0371 20.7508 17.0371 20.7508C19.0138 22.0807 22.0016 24.0924 23.8052 24.6227C23.8998 24.6507 23.9972 24.6283 24.0675 24.561C24.0675 24.5582 24.346 24.3758 24.346 24.3758L24.3974 24.3533C24.5001 24.3028 24.5704 24.1205 24.5812 23.9241C26.1036 23.8455 28.2235 23.2366 29.3592 21.7552C29.7972 21.18 29.9973 20.4786 29.9973 19.8782C29.9973 19.3844 29.8648 18.9579 29.6269 18.725" fill="white"/>
</svg>
