<svg width="37" height="37" viewBox="0 0 37 37" fill="none" xmlns="http://www.w3.org/2000/svg">
<rect width="37" height="37" rx="14" fill="#013775"/>
<path d="M22.0787 19.8059C22.7087 19.8059 23.0586 19.8965 23.0683 20.324C23.0724 20.5592 22.9152 20.8338 22.7439 20.968C22.3593 21.27 22.0206 21.3027 20.2129 21.3027H11.2952L13.0178 13.9937H10.0384C9.8395 13.9937 9.76452 14.0522 9.70535 14.2927L8.07158 21.1421C7.76401 22.5036 8.45516 23.7492 10.0002 23.7492H14.091C15.1274 23.7492 16.5138 22.6005 17.0764 21.5389C17.1075 21.4804 17.1274 21.4431 17.1504 21.3944C17.1504 21.3944 17.1621 21.3799 17.1657 21.4011C17.1657 21.4021 17.1662 21.4021 17.1662 21.4021C17.0764 21.783 16.7632 23.1316 16.7122 23.3518C16.6459 23.6388 16.7933 23.7476 16.929 23.7476H21.3304C25.0622 23.7476 26.5194 21.9431 26.648 19.7784C26.7189 18.5614 25.9609 17.7743 23.8171 17.7743H22.17C21.585 17.7743 20.9851 17.5785 20.9851 17.0961C20.9851 16.6138 21.6365 16.1926 22.521 16.1926H26.5286C26.5286 16.1926 26.879 14.7678 26.9484 14.4688C27.0351 14.0937 26.9244 13.9844 26.6541 13.9844H21.7003C18.8234 13.9844 17.5319 15.9402 17.5319 17.334C17.5319 18.7277 18.6388 19.8043 21.4947 19.8043L22.0797 19.8064L22.0787 19.8059Z" fill="white"/>
<path d="M24.0234 12.7812H31.9969L27.8954 14.9205C27.8954 14.9205 28.0607 14.22 28.1107 14.0112C28.1617 13.7895 28.0928 13.6221 27.7837 13.5589C27.4766 13.4957 24.0234 12.7812 24.0234 12.7812Z" fill="white"/>
</svg>
