<svg width="37" height="37" viewBox="0 0 37 37" fill="none" xmlns="http://www.w3.org/2000/svg">
<rect width="37" height="37" rx="14" fill="#1C2372"/>
<path d="M8 14.2605V23H9.91001V19.8882H10.6932L13.1944 22.9953H15.5592L12.2697 19.0795L15.2712 15.8448H12.9165L10.6477 18.3181H9.90496V12.4398L8 14.2605ZM18.5606 20.7158V17.4149H20.8395V15.8401H18.5606V13.7829L15.1347 17.4149H16.6506V20.8341C16.6506 22.0258 17.6865 22.9953 18.9649 22.9953H21.4711V21.4205H19.3186C18.8992 21.4205 18.5606 21.1036 18.5606 20.7111M26.6908 15.8495H24.6444C24.5079 15.8495 24.3715 15.8637 24.2401 15.8826V12L22.3301 13.8207V20.8341C22.3301 22.0258 23.3609 22.9953 24.6393 22.9953H26.6858C27.9641 22.9953 29 22.0258 29 20.8341V18.0107C29 16.8143 27.9641 15.8495 26.6908 15.8448M27.095 20.7158C27.095 21.1083 26.7565 21.4252 26.3371 21.4252H25.0031C24.5837 21.4252 24.2452 21.1083 24.2452 20.7158V18.1148C24.2603 17.7317 24.5938 17.4291 25.0031 17.4291H26.3422C26.7615 17.4291 27.095 17.7459 27.1001 18.1384V20.7206L27.095 20.7158Z" fill="white"/>
</svg>
