<svg width="37" height="37" viewBox="0 0 37 37" fill="none" xmlns="http://www.w3.org/2000/svg">
<rect width="37" height="37" rx="14" fill="#00B1AD"/>
<path d="M18.4385 10C20.5827 10.0002 22.3212 11.7385 22.3213 13.8828C22.3213 15.7917 20.9431 17.3764 19.1279 17.7021L19.1299 17.7041C19.1299 17.7041 16.7532 18.2693 16.9238 20.9268C16.9535 21.1202 16.9688 21.3187 16.9688 21.5205C16.9686 23.6649 15.2303 25.4033 13.0859 25.4033C10.9416 25.4033 9.20327 23.6648 9.20312 21.5205C9.20312 19.6391 10.541 18.0695 12.3174 17.7129C12.948 17.5408 14.7425 16.8423 14.5947 14.4395C14.5686 14.2577 14.5547 14.0718 14.5547 13.8828C14.5547 11.7384 16.294 10 18.4385 10ZM23.8242 17.6377C25.9687 17.6377 27.707 19.376 27.707 21.5205C27.7069 23.6649 25.9686 25.4033 23.8242 25.4033C21.68 25.4031 19.9416 23.6647 19.9414 21.5205C19.9414 19.3762 21.6799 17.6379 23.8242 17.6377Z" fill="white"/>
</svg>
