<svg width="37" height="37" viewBox="0 0 37 37" fill="none" xmlns="http://www.w3.org/2000/svg">
<rect width="37" height="37" rx="14" fill="#ED1B23"/>
<path d="M7.96996 18.5204L10.6084 18.5158V18.0173H7.96996V17.2522H10.6665V16.7422H7.02337V19.5521C7.02129 19.5706 6.97562 19.8233 6.85938 19.9369H10.8305V19.4431L7.96996 19.4385V18.5204Z" fill="white"/>
<path d="M20.8255 16.9207C20.4726 16.8025 19.9557 16.7422 19.2727 16.7422H17.5041V19.5544C17.4979 19.5892 17.448 19.8256 17.3359 19.9369H19.2831C19.9494 19.9369 20.4684 19.8604 20.8441 19.7097C21.2178 19.5567 21.496 19.355 21.6807 19.1C21.8634 18.8473 21.9547 18.5691 21.9547 18.2654C21.9547 17.9454 21.8551 17.6695 21.6558 17.4423C21.4544 17.2151 21.1784 17.0413 20.8275 16.923L20.8255 16.9207ZM20.8317 18.9331C20.7279 19.1162 20.5847 19.2507 20.4041 19.3365C20.2214 19.4222 19.9474 19.464 19.5799 19.464H18.4486V17.2314H19.3288C19.8581 17.2314 20.2235 17.2801 20.4207 17.3797C20.62 17.4794 20.7632 17.6093 20.8545 17.7739C20.9438 17.9385 20.9874 18.1193 20.9874 18.3187C20.9874 18.5436 20.9355 18.7499 20.8338 18.9331H20.8317Z" fill="white"/>
<path d="M29.5852 16.7367H28.7175V19.0528L26.1601 16.7367H25.4999V19.5512C25.4916 19.5999 25.4439 19.8248 25.3359 19.9291H26.3635V17.8449L28.7134 19.9291H29.5852V17.1215C29.5852 17.1215 29.6267 16.8526 29.7471 16.7344H29.5852V16.7367Z" fill="white"/>
<path d="M23.1775 16.7422V19.5428C23.1775 19.5428 23.136 19.8141 23.0156 19.9323H24.1511V17.1201C24.1594 17.0737 24.203 16.8488 24.311 16.7422H23.1775Z" fill="white"/>
<path d="M14.6602 16.7523H14.4713L13.9461 16.75L11.8516 19.9332H12.8251L13.3981 19.0638H15.092L15.4117 19.5529C15.4241 19.5784 15.5362 19.8242 15.4802 19.9355H16.6219L14.7329 17.1418C14.7204 17.1163 14.6021 16.8706 14.6602 16.757V16.7523ZM13.7136 18.5444L14.2305 17.7492L14.7578 18.5444H13.7136Z" fill="white"/>
<path d="M3.12818 17.1215C3.12818 17.1215 3.16969 16.8526 3.29009 16.7344H2.15252V19.5535C2.14422 19.6092 2.08817 19.8248 1.98438 19.9291H5.95965V19.4283H3.1261V17.1215H3.12818Z" fill="white"/>
<path d="M34.8281 18.3281V18.7153C34.8281 18.7153 34.8676 18.4464 34.99 18.3281H34.8281Z" fill="white"/>
<path d="M33.9003 19.3745C33.7363 19.4371 33.6886 19.4418 33.5682 19.4673C33.4581 19.4928 33.3793 19.5136 33.2049 19.5159C32.7357 19.5275 32.5884 19.5043 32.3081 19.3838C32.0279 19.2632 31.866 19.1033 31.7373 18.8992C31.621 18.7161 31.5567 18.5422 31.5567 18.3196C31.5567 17.9603 31.7227 17.645 31.9635 17.4595C32.2189 17.2648 32.5572 17.1581 33.07 17.1489C33.2547 17.1465 33.454 17.1581 33.6637 17.1767C33.8733 17.1952 34.1203 17.223 34.2511 17.2648L34.8158 16.8266C34.2117 16.7339 33.6325 16.6875 33.0803 16.6875C32.1649 16.6875 31.4861 16.8382 31.0377 17.1419C30.5893 17.4456 30.3672 17.8351 30.3672 18.3104C30.3672 18.621 30.4648 18.9016 30.662 19.1543C30.8592 19.407 31.1456 19.5994 31.5255 19.7339C31.9033 19.866 32.4223 19.9332 33.0824 19.9332C33.3191 19.9332 33.5495 19.9263 33.7737 19.9101C33.9958 19.8938 34.3466 19.8475 34.8261 19.7686V18.3266H33.8962L33.9003 19.3745Z" fill="white"/>
<path d="M23.7542 13.9375C23.7542 13.9375 23.5985 14.5403 23.4844 14.8301C23.6504 14.786 23.8331 14.7258 24.0303 14.6469C23.8829 14.225 23.7522 13.9375 23.7522 13.9375H23.7542Z" fill="white"/>
<path d="M23.4884 14.834C22.6975 15.045 22.2969 14.9036 22.2969 14.9036C22.2969 14.9036 22.7515 15.1424 23.2455 15.409C23.0982 15.7359 22.9466 16.0419 22.8345 16.2737C23.011 16.2065 23.3307 15.9654 23.6898 15.6524C23.8558 15.5064 24.0323 15.3441 24.2046 15.1748C24.6094 14.7807 25.0038 14.3518 25.2488 14.0156C24.7921 14.3054 24.3893 14.5094 24.0364 14.6485C23.8372 14.7274 23.6566 14.7876 23.4905 14.8317L23.4884 14.834Z" fill="white"/>
</svg>
