<svg width="37" height="37" viewBox="0 0 37 37" fill="none" xmlns="http://www.w3.org/2000/svg">
<rect width="37" height="37" rx="14" fill="#D7D7D7"/>
<path d="M13.6548 21.8998C12.9626 23.1152 11.4345 23.5317 10.2441 22.825C9.05042 22.1183 8.64583 20.5581 9.33798 19.3393L15.1695 9.22342C15.8616 8.00461 17.3864 7.59151 18.5801 8.29822C19.7705 9.00492 20.1784 10.5651 19.4863 11.784L13.6581 21.8998H13.6548Z" fill="#219346"/>
<path d="M21.8371 26.5951C21.1449 27.8139 19.6168 28.227 18.4231 27.5203C17.2327 26.8136 16.8248 25.2534 17.5169 24.0346L23.3451 13.9187C24.0373 12.6999 25.5653 12.2868 26.7591 12.9935C27.9494 13.7002 28.3574 15.2605 27.6652 16.4793L21.8371 26.5951Z" fill="#D81F26"/>
<path d="M9.91406 18.6708C9.91406 18.6708 13.7126 14.1609 18.7215 15.4275C23.7304 16.6941 24.5831 19.7804 24.5831 19.7804L20.3432 22.3409C20.3432 22.3409 19.4237 20.7602 17.0697 20.3574C15.5316 20.0945 14.5284 21.3816 13.0304 22.6175L9.91406 18.6708Z" fill="#2798D5"/>
<path d="M24.7779 20.7656C24.7779 22.1722 23.6611 23.3125 22.2835 23.3125C20.9059 23.3125 19.7891 22.1722 19.7891 20.7656C19.7891 19.359 20.9059 18.2188 22.2835 18.2188C23.6611 18.2188 24.7779 19.359 24.7779 20.7656Z" fill="#EDA81F"/>
<path d="M13.9889 20.6172C13.9889 22.0238 12.8721 23.1641 11.4944 23.1641C10.1168 23.1641 9 22.0238 9 20.6172C9 19.2106 10.1168 18.0703 11.4944 18.0703C12.8721 18.0703 13.9889 19.2106 13.9889 20.6172Z" fill="#1F428A"/>
</svg>
