<svg width="37" height="37" viewBox="0 0 37 37" fill="none" xmlns="http://www.w3.org/2000/svg">
<rect width="37" height="37" rx="14" fill="#EA002C"/>
<path d="M21.2053 14.813C23.0234 14.813 24.5714 15.9729 25.1599 17.5929C25.2444 17.8207 25.307 18.0584 25.3487 18.3017C25.3915 18.5416 25.4179 18.7848 25.4179 19.0346C25.4179 19.2844 25.3915 19.5298 25.3487 19.7676C25.307 20.0141 25.2433 20.2496 25.1599 20.4785C25.0753 20.7118 24.9721 20.9341 24.8514 21.1443C24.7284 21.3578 24.5879 21.5614 24.4309 21.7474C23.658 22.6697 22.5008 23.2574 21.2053 23.2574C19.3849 23.2574 17.8369 22.0985 17.2495 20.4774C17.1672 20.2485 17.1024 20.0119 17.0596 19.7665C17.019 19.5287 16.9937 19.2855 16.9937 19.0335C16.9937 18.7815 17.019 18.5405 17.0596 18.3006L14.294 17.813C14.2259 18.2103 14.1875 18.6186 14.1875 19.0335C14.1875 19.4484 14.2259 19.8578 14.294 20.2562C14.3643 20.6634 14.4708 21.0596 14.608 21.4426C15.5884 24.1411 18.1718 26.0703 21.2053 26.0703C23.3615 26.0703 25.2927 25.0919 26.5795 23.5545C26.8419 23.2441 27.0768 22.9063 27.281 22.5519C27.4863 22.1986 27.6598 21.8278 27.8014 21.4415C27.9398 21.0596 28.0441 20.6623 28.1154 20.2551C28.1857 19.8567 28.223 19.4506 28.223 19.0324C28.223 18.6142 28.1857 18.2092 28.1154 17.8119C28.0441 17.4036 27.9398 17.0063 27.8014 16.6255C26.821 13.9292 24.2376 12 21.2053 12V14.813Z" fill="white"/>
<path d="M15.02 14.813C13.1996 14.813 11.6527 15.9729 11.0642 17.5929C10.9808 17.8207 10.9171 18.0584 10.8743 18.3017C10.8326 18.5416 10.8062 18.7848 10.8062 19.0346C10.8062 19.2844 10.8326 19.5298 10.8743 19.7676C10.9171 20.0141 10.9819 20.2496 11.0642 20.4785C11.1488 20.7118 11.2509 20.9341 11.3727 21.1443C11.4957 21.3578 11.6362 21.5614 11.7932 21.7474C12.564 22.6697 13.7222 23.2574 15.0189 23.2574C16.8392 23.2574 18.3861 22.0985 18.9735 20.4774C19.058 20.2485 19.1206 20.0119 19.1645 19.7665C19.2051 19.5287 19.2315 19.2855 19.2315 19.0335C19.2315 18.7815 19.2051 18.5405 19.1645 18.3006L21.9301 17.813C21.9993 18.2103 22.0377 18.6186 22.0377 19.0335C22.0377 19.4484 21.9993 19.8578 21.9301 20.2562C21.8588 20.6634 21.7545 21.0596 21.6161 21.4426C20.6346 24.1411 18.0523 26.0703 15.02 26.0703C12.8615 26.0703 10.9325 25.0919 9.64465 23.5545C9.38225 23.2441 9.1484 22.9063 8.942 22.5519C8.73888 22.1986 8.56322 21.8278 8.42269 21.4415C8.28436 21.0596 8.18115 20.6623 8.10869 20.2551C8.03952 19.8567 8 19.4506 8 19.0324C8 18.6142 8.03843 18.2092 8.10869 17.8119C8.18115 17.4036 8.28436 17.0063 8.42269 16.6255C9.40421 13.9292 11.9865 12 15.02 12V14.813Z" fill="white"/>
</svg>
