<svg width="37" height="37" viewBox="0 0 37 37" fill="none" xmlns="http://www.w3.org/2000/svg">
<rect width="37" height="37" rx="14" fill="#D7000F"/>
<path d="M29.4917 16.0115H30.1361C30.1774 16.0115 30.2119 15.9766 30.2119 15.9347V14.7018C30.2119 14.6599 30.1774 14.625 30.1361 14.625H29.2333C28.1858 14.625 27.631 14.9638 27.314 15.6832L25.3465 20.5692C25.2259 20.8626 25.0571 20.9988 24.716 20.9988V14.7018C24.716 14.6599 24.6815 14.625 24.6402 14.625H23.193C23.1516 14.625 23.1172 14.6599 23.1172 14.7018V22.2491C23.1172 22.3224 23.1758 22.3853 23.2516 22.3853H24.8745C25.922 22.3853 26.3975 22.0465 26.7145 21.3271L28.6579 16.5005C28.8129 16.1582 29.0369 16.008 29.4917 16.008V16.0115Z" fill="white"/>
<path d="M11.8198 18.5051C12.4021 18.2607 12.881 17.7089 12.881 16.8008C12.881 15.4457 11.7336 14.625 10.3519 14.625H6.07581C6.03446 14.625 6 14.6599 6 14.7018V15.9312C6 15.9731 6.03446 16.008 6.07581 16.008H10.0556C10.6965 16.008 11.1306 16.4062 11.1306 16.8951C11.1306 17.3841 10.6965 17.7822 10.0556 17.7822H7.69183V16.8672C7.69183 16.8253 7.65738 16.7903 7.61603 16.7903H6.07581C6.03446 16.7903 6 16.8253 6 16.8672V22.3085C6 22.3504 6.03446 22.3853 6.07581 22.3853H10.2864C11.8611 22.3853 12.9913 21.6414 12.9913 20.1222C12.9913 19.3783 12.5571 18.7601 11.8198 18.5051ZM10.1383 21.0337H7.69183V19.2141H10.1383C10.7964 19.2141 11.2409 19.6227 11.2409 20.1222C11.2409 20.6216 10.7964 21.0337 10.1383 21.0337Z" fill="white"/>
<path d="M30.9919 22.2943L28.511 19.0812C28.511 19.0812 28.4938 19.0742 28.4869 19.0812L27.8218 20.7367C27.8218 20.7367 27.8184 20.7576 27.8218 20.7681L28.9072 22.2419C28.983 22.3467 29.0692 22.3851 29.2001 22.3851H30.9471C30.9988 22.3851 31.0194 22.3362 30.9919 22.2943Z" fill="white"/>
<path d="M14.2589 16.7969H15.7061C15.7475 16.7969 15.7819 16.8318 15.7819 16.8737V22.315C15.7819 22.3569 15.7475 22.3918 15.7061 22.3918H14.2555C14.2141 22.3918 14.1797 22.3569 14.1797 22.315V16.8737C14.1797 16.8318 14.2141 16.7969 14.2555 16.7969H14.2589Z" fill="white"/>
<path d="M21.6646 14.625H20.2175C20.1761 14.625 20.1416 14.6599 20.1416 14.7018V21.0023C19.804 21.0023 19.6317 20.8626 19.5111 20.5727L17.5436 15.6867C17.2266 14.9673 16.6718 14.6285 15.6278 14.6285H14.2633C14.2185 14.6285 14.1875 14.6634 14.1875 14.7053V15.9347C14.1875 15.9766 14.222 16.0115 14.2633 16.0115H15.3659C15.8208 16.0115 16.0447 16.1617 16.2032 16.504L18.1432 21.3306C18.4602 22.05 18.9391 22.3888 19.9866 22.3888H21.6095C21.6819 22.3888 21.7439 22.3259 21.7439 22.2526V14.7018C21.7439 14.6599 21.7094 14.625 21.6681 14.625H21.6646Z" fill="white"/>
</svg>
