<svg width="37" height="37" viewBox="0 0 37 37" fill="none" xmlns="http://www.w3.org/2000/svg">
<rect width="37" height="37" rx="14" fill="#3352BC"/>
<path d="M12 18.5078L12.2969 18.9811H14.6598V20.9898H15.6679V18.9811H18.2205V18.5078H12Z" fill="white"/>
<path d="M14.4561 16.1302C14.3562 16.9903 13.5129 17.4396 12.41 17.5622L12.3077 17.567V17.9923H12.4175C13.2858 17.9923 14.2889 17.8769 15.1497 17.0288C15.9082 17.788 16.784 17.9682 17.8994 17.9923L18.0042 17.9875V17.5718L17.9069 17.5622C16.5295 17.4348 15.9557 16.9255 15.8184 16.1302H17.847V15.6016H12.2578L12.5622 16.1302H14.4561Z" fill="white"/>
<path d="M29.4037 17.1337C29.4037 16.7998 29.2241 16.4994 28.9346 16.288H29.6033V15.8171H28.4206V15.2812H27.2878C27.2205 15.2812 27.0782 15.2813 27.0782 15.3966C27.0782 15.435 27.0932 15.5263 27.2429 15.5263C27.3103 15.5263 27.3153 15.5335 27.3602 15.5455C27.4151 15.5576 27.4725 15.5864 27.4825 15.7642L27.4874 15.8195H26.0078L26.3022 16.2904H26.921C26.6341 16.5018 26.452 16.8022 26.452 17.1362C26.452 17.7753 27.1132 18.2967 27.9266 18.2967C28.74 18.2967 29.4012 17.7753 29.4012 17.1362L29.4037 17.1337ZM27.2679 17.0929C27.2679 16.6916 27.5573 16.3649 27.9116 16.3649C28.2659 16.3649 28.5529 16.6916 28.5529 17.0929C28.5529 17.4942 28.2659 17.8209 27.9116 17.8209C27.5573 17.8209 27.2679 17.4942 27.2679 17.0929Z" fill="white"/>
<path d="M29.5423 18.4297C28.2348 18.4297 27.1719 19.0087 27.1719 19.7199C27.1719 20.4312 28.2348 21.0102 29.5423 21.0102C30.8498 21.0102 31.9127 20.4312 31.9127 19.7199C31.9127 19.0087 30.8498 18.4297 29.5423 18.4297ZM29.5423 20.5537C28.7937 20.5537 28.1874 20.1813 28.1874 19.7224C28.1874 19.2634 28.7937 18.891 29.5423 18.891C30.2908 18.891 30.8972 19.2634 30.8972 19.7224C30.8972 20.1813 30.2883 20.5537 29.5423 20.5537Z" fill="white"/>
<path d="M31.1584 15.4609V16.4461H30.8091V15.4609H29.7487C29.6813 15.4609 29.5391 15.4609 29.5391 15.5739C29.5391 15.6123 29.5565 15.7036 29.7062 15.7036C29.7736 15.7036 29.7961 15.7084 29.841 15.7228C29.8959 15.7348 29.9657 15.7613 29.9657 15.9415V18.2553H30.8091V16.8954H31.1584V18.2553H32.0043V15.4609H31.1584Z" fill="white"/>
<path d="M22.3919 17.8497C23.7243 17.8497 24.8072 17.2587 24.8072 16.533C24.8072 15.8074 23.7218 15.2188 22.3919 15.2188C21.062 15.2188 19.9766 15.8074 19.9766 16.533C19.9766 17.2587 21.0595 17.8497 22.3919 17.8497ZM22.3894 15.6897C23.1504 15.6897 23.7717 16.0693 23.7717 16.5378C23.7717 17.0064 23.1504 17.3836 22.3894 17.3836C21.6284 17.3836 21.0071 17.004 21.0071 16.5378C21.0071 16.0717 21.6259 15.6897 22.3894 15.6897Z" fill="white"/>
<path d="M21.0637 18.6152H25.2032V18.125H19.125L19.4219 18.6152H19.9035C19.9035 18.6152 20.0831 18.5959 20.0956 18.8218V18.829C20.0956 18.829 20.1081 19.3216 20.1106 19.5835C20.1256 20.4556 20.5273 20.8569 21.2733 20.8353H24.804V20.3643H21.5528C21.0662 20.3643 21.0138 20.1769 21.0138 19.7781V18.6128H21.0637V18.6152Z" fill="white"/>
<path d="M7.91436 16.1206H7.9967V15.6016H5.07735L5.13973 15.7169L5.33685 16.0773L5.3593 16.1206H6.19019C6.2376 18.2902 5.94068 18.9678 5.04741 19.8448L5 19.8664V20.2725L5.09232 20.258C5.59135 20.0058 5.99557 19.8159 6.68673 18.5185C7.10592 19.3907 7.52012 19.8376 8.36349 20.2604V19.8448C7.24815 18.7756 7.11091 18.122 7.1184 16.123H7.90936L7.91436 16.1206Z" fill="white"/>
<path d="M8.13066 15.5606C8.13066 15.5991 8.14563 15.6904 8.29534 15.6904C8.36271 15.6904 8.42259 15.6952 8.46751 15.7072C8.51242 15.7192 8.55983 15.736 8.57979 15.8466V16.9614H7.66406V17.442H8.57979V20.9403H9.54292V15.4453H8.33776C8.28037 15.4453 8.13066 15.4429 8.13066 15.5606Z" fill="white"/>
<path d="M10.8772 15.4453H9.91406V20.9403H10.8772V15.4453Z" fill="white"/>
</svg>
