<svg width="37" height="37" viewBox="0 0 37 37" fill="none" xmlns="http://www.w3.org/2000/svg">
<rect width="37" height="37" rx="14" fill="#CE2928"/>
<path d="M13.262 13.5823C12.9411 14.3706 11.5112 14.9206 10.8146 15.663C9.10963 17.368 9.56794 20.5578 11.2729 21.1536C12.8861 21.6578 11.3645 18.7521 12.8861 17.4596C14.4994 16.2588 18.6976 18.4313 15.3335 21.2453C14.5452 21.7953 14.4536 21.9878 13.9494 22.4919C11.227 25.2601 15.6544 28.3492 18.8901 27.9367C21.7958 27.6159 22.5841 25.7185 22.9507 22.9961C23.3174 20.5487 22.8591 19.7145 23.2257 17.9179C24.4265 14.5447 28.3955 17.4138 28.9455 19.0729C28.9455 18.8896 28.9913 18.7062 28.9913 18.5229C29.0005 12.7115 24.289 8 18.4776 8C15.1502 8 12.1987 9.56744 10.3104 11.969C12.5287 10.5849 13.9586 11.9232 13.262 13.5823Z" fill="white"/>
<path opacity="0.6" d="M23.6927 27.6134C26.6901 25.9085 28.7708 22.7186 28.9542 19.0796C28.45 17.6038 25.2143 15.1564 23.6927 17.0447V27.6134ZM23.6927 15.1931V11.8749C23.9677 11.9665 24.2885 12.104 24.5727 12.2874C25.5901 13.0298 26.0026 14.1756 25.4985 14.8264C25.1777 15.3306 24.4352 15.4222 23.7019 15.1931H23.6927ZM23.2252 17.9155C22.8586 19.7121 23.3169 20.5462 22.9502 22.9936C22.5836 25.716 21.7953 27.6042 18.8896 27.9342C15.663 28.3467 11.2265 25.2577 13.9489 22.4894C14.4531 21.9853 14.5447 21.802 15.333 21.2428C18.7062 18.4288 14.4989 16.2564 12.8856 17.4571C11.364 18.7496 12.8856 21.6553 11.2724 21.1512C9.56744 20.5554 9.09996 17.3655 10.8141 15.6606C11.5107 14.9181 12.9406 14.3681 13.2615 13.5798C13.9489 11.9207 12.519 10.5824 10.3099 11.9665C8.87997 13.7631 8 16.0272 8 18.5204C8 24.286 12.7115 28.9975 18.4771 28.9975C20.3653 28.9975 22.1711 28.4934 23.6927 27.6134V17.0447C23.5094 17.2738 23.3719 17.5946 23.2344 17.9246L23.2252 17.9155ZM23.6927 11.8749V15.1931C23.4177 15.1014 23.0969 14.9181 22.8127 14.7348C21.7953 13.9923 21.3828 12.8923 21.8869 12.1957C22.2078 11.7374 22.9502 11.5999 23.6835 11.8749H23.6927Z" fill="white"/>
</svg>
