<svg width="37" height="37" viewBox="0 0 37 37" fill="none" xmlns="http://www.w3.org/2000/svg">
<rect width="37" height="37" rx="14" fill="#1C90CD"/>
<path d="M17.0156 7.95749C17.0156 7.98111 17.3459 8.19371 17.747 8.42993L18.4667 8.85513L18.9857 8.58348C20.2126 7.93387 20.189 7.89844 18.5257 7.89844C17.6881 7.89844 17.0156 7.92206 17.0156 7.95749Z" fill="white"/>
<path d="M14.4616 8.65447C13.8835 8.92612 13.86 8.94974 13.6476 9.74108C13.5296 10.1899 13.4117 10.6269 13.3763 10.7096C13.3527 10.7923 13.6594 10.6742 14.0723 10.4497C14.9099 9.98911 15.5233 9.75289 16.2902 9.5521C16.88 9.39856 16.8682 9.37494 15.8301 8.80801L15.0515 8.38281L14.4616 8.65447Z" fill="white"/>
<path d="M21.0219 8.88422C20.0664 9.41571 20.0546 9.36847 21.2579 9.73461C21.6118 9.84091 22.296 10.1362 22.7679 10.3842C23.2398 10.6322 23.6173 10.774 23.5819 10.7031C23.5583 10.6204 23.4403 10.1834 23.3223 9.71099C23.1808 9.17949 23.0392 8.84878 22.9212 8.81335C22.8151 8.77792 22.5437 8.67162 22.3196 8.57713C21.9067 8.39996 21.8831 8.39996 21.0219 8.88422Z" fill="white"/>
<path d="M24.6875 9.86095C24.6875 9.92001 24.7819 10.3334 24.8998 10.794L25.1122 11.6208L26.0442 11.9279C26.5632 12.0932 27.0115 12.2232 27.0351 12.1995C27.0587 12.1759 26.8228 11.857 26.5043 11.4909C25.8672 10.7586 24.6875 9.6956 24.6875 9.86095Z" fill="white"/>
<path d="M11.079 10.9692C10.4891 11.548 10.029 12.0559 10.0644 12.0795C10.1116 12.1267 11.6924 11.7015 11.7986 11.607C11.8694 11.548 12.2705 9.90625 12.2115 9.90625C12.1761 9.90625 11.6688 10.3787 11.079 10.9692Z" fill="white"/>
<path d="M16.0171 12.2625C14.3774 12.6641 13.4572 14.3413 13.9998 15.9122C14.2594 16.6444 14.6487 17.0814 15.2975 17.4122C15.793 17.6602 16.0525 17.7074 16.9255 17.7074H17.9637V16.9161L17.1261 16.8452C15.6986 16.7271 15.0734 16.1602 15.0734 14.9909C15.0734 13.8216 15.734 13.2311 17.1497 13.1248L17.9637 13.0657V12.1562L17.1733 12.1681C16.725 12.1799 16.2177 12.2153 16.0171 12.2625Z" fill="white"/>
<path d="M21.4324 14.3531C21.8571 15.5696 22.1992 16.5972 22.1992 16.6562C22.1992 16.7153 21.7509 16.7625 21.1965 16.7625C20.642 16.7625 20.1937 16.7507 20.1937 16.7271C20.1937 16.7035 20.3235 16.2429 20.4886 15.6996C20.6538 15.1562 20.7836 14.672 20.7836 14.6129C20.7836 14.5657 20.5476 14.5185 20.2645 14.5185H19.7336L19.3089 15.8413C19.073 16.5736 18.837 17.3177 18.778 17.4948L18.6719 17.8255H23.7564L23.6856 17.5421C23.6502 17.3885 23.2138 16.1129 22.7183 14.7074L21.8217 12.1562H20.6774L21.4324 14.3531Z" fill="white"/>
<path d="M9.96833 13.4866C9.02456 13.7229 9.00097 13.7347 8.82401 14.2189C8.56448 14.8921 8.57628 14.9866 9.07175 15.9788L9.50825 16.8646L9.72059 16.0378C9.82677 15.589 10.1571 14.7622 10.4402 14.2189C10.7233 13.6638 10.9593 13.215 10.9475 13.2268C10.9357 13.2386 10.4992 13.3449 9.96833 13.4866Z" fill="white"/>
<path d="M26.0843 13.3844C26.3793 13.7388 27.0753 15.3214 27.2641 16.0537L27.4646 16.8687L27.9483 15.9002L28.4202 14.9317L28.196 14.3293L27.9719 13.7388L26.9691 13.4907C26.3911 13.349 26.0254 13.3018 26.0843 13.3844Z" fill="white"/>
<path d="M8.02523 17.669C7.98984 18.1769 7.98984 18.9092 8.03702 19.2989L8.10781 20.0076L8.5443 19.1926L8.98079 18.3777L8.63868 17.7163C8.09601 16.6651 8.08421 16.6651 8.02523 17.669Z" fill="white"/>
<path d="M28.4365 17.5417L28 18.3803L28.4365 19.1953L28.873 20.0102L28.9674 19.1834C29.0146 18.7228 29.0146 17.9787 28.9674 17.5299L28.873 16.7031L28.4365 17.5417Z" fill="white"/>
<path d="M13.9453 19.4724V19.9449H15.302C16.6233 19.9449 16.6586 19.9567 16.8474 20.2402C17.0126 20.4882 17.0244 20.6063 16.9182 20.8425C16.7294 21.2559 16.3283 21.3622 15.0542 21.3622H13.9453V24.5512H15.125V22.3071H15.9272C17.0362 22.2953 17.6496 22 17.9563 21.3386C18.2513 20.7008 18.2513 20.4882 17.9563 19.8858C17.5788 19.1063 17.2839 19 15.4907 19H13.9453V19.4724Z" fill="white"/>
<path d="M19.25 19.4724V19.9449H23.143V19H19.25V19.4724Z" fill="white"/>
<path d="M9.03056 20.8664L8.54688 21.7758L8.75922 22.3546C8.88899 22.6617 9.00696 22.9451 9.04235 22.9806C9.08954 23.0396 10.7529 23.4884 10.9181 23.4884C10.9653 23.4884 10.8591 23.264 10.6939 22.9924C10.281 22.3546 10.0687 21.8467 9.76198 20.8073L9.51424 19.9688L9.03056 20.8664Z" fill="white"/>
<path d="M27.397 20.0901C27.397 20.5153 26.7953 22.1688 26.406 22.8066C26.1819 23.1846 26.0403 23.4917 26.0757 23.4917C26.2173 23.4917 27.8925 23.0428 27.9279 22.9956C27.9515 22.972 28.0812 22.7003 28.211 22.3932L28.4587 21.8263L28.1638 21.2357C27.6801 20.2909 27.397 19.8657 27.397 20.0901Z" fill="white"/>
<path d="M19.25 22.9539V24.5484H23.143V23.6035H20.4297V22.3043H23.143V21.3594H19.25V22.9539Z" fill="white"/>
<path d="M10.0547 24.6708C10.0547 24.7299 10.503 25.2378 11.0574 25.7929C11.6119 26.348 12.1192 26.7968 12.1782 26.7968C12.2254 26.7968 12.1546 26.4189 12.013 25.9464L11.7535 25.096L10.9041 24.8362C10.4322 24.6944 10.0547 24.6236 10.0547 24.6708Z" fill="white"/>
<path d="M25.8624 24.8842L25.2254 25.085L24.9658 25.9472C24.8243 26.4078 24.7299 26.7976 24.7653 26.7976C24.9068 26.7976 26.004 25.7936 26.4523 25.2503C27.0185 24.5889 26.9477 24.5535 25.8624 24.8842Z" fill="white"/>
<path d="M13.3925 26.0417C13.4397 26.1598 13.5223 26.5259 13.5931 26.8566C13.7936 27.8015 13.8054 27.8251 14.4425 28.085C14.7728 28.2149 15.0913 28.333 15.1621 28.333C15.2329 28.333 15.634 28.1086 16.0469 27.837L16.8019 27.3409L16.094 27.1401C15.2447 26.9039 14.1947 26.4433 13.6874 26.0771C13.3571 25.8409 13.3335 25.8291 13.3925 26.0417Z" fill="white"/>
<path d="M23.3217 26.0571C22.9206 26.3642 21.6701 26.9193 20.9033 27.1437L20.1719 27.3445L20.9269 27.8406C21.3398 28.1122 21.7645 28.3366 21.8589 28.3366C21.9532 28.3366 22.2836 28.2067 22.6021 28.065L23.1919 27.7933L23.3925 26.8603C23.5105 26.3406 23.593 25.9036 23.5812 25.8918C23.5694 25.8799 23.4515 25.9626 23.3217 26.0571Z" fill="white"/>
<path d="M17.6182 28.3361L16.875 28.7731L17.6654 28.8676C18.1019 28.9149 18.8333 28.9149 19.2816 28.8676L20.1074 28.7849L19.3288 28.3243C18.8923 28.0645 18.4912 27.8637 18.4558 27.8755C18.4086 27.8755 18.0311 28.0881 17.6182 28.3361Z" fill="white"/>
</svg>
