<svg width="37" height="37" viewBox="0 0 37 37" fill="none" xmlns="http://www.w3.org/2000/svg">
<rect width="37" height="37" rx="14" fill="#0056A7"/>
<path d="M26.999 20.59C26.0691 22.8416 24.5163 23.4751 24.5163 23.4751C29.0945 18.9544 26.296 13.7397 26.296 13.7397C25.6197 12.5727 26.4784 12.0607 26.4784 12.0607C24.5119 12.538 25.1259 14.1258 25.1259 14.1258C26.1136 16.4208 25.9134 18.282 25.5797 19.436L24.9301 19.0803L24.939 19.0672C24.939 19.0672 26.474 13.1714 20.214 11.102V10H18.8882V17.3059L25.0324 20.7202C24.9212 20.9414 24.8011 21.1497 24.6765 21.3492L18.5055 17.8655L12.3079 21.3492C12.1833 21.154 12.0676 20.9458 11.9519 20.7202L18.0962 17.3059V10H16.7748V11.1106C10.5193 13.18 12.0543 19.0759 12.0543 19.0759L12.0632 19.0889L11.4136 19.4447C11.0799 18.2907 10.8797 16.4295 11.8674 14.1345C11.8674 14.1345 12.4814 12.5466 10.5149 12.0694C10.5149 12.0694 11.3735 12.577 10.6973 13.7484C10.6973 13.7484 7.9032 18.9588 12.4769 23.4837C12.4769 23.4837 10.9197 22.846 9.99431 20.5987C9.99431 20.5987 9.46931 19.5011 7.99219 19.7397C7.99219 19.7397 8.54833 19.987 8.87312 20.9805C8.87312 20.9805 10.2034 25.102 15.3288 25.731V28.0087H17.8471V24.6551C17.8471 24.6551 15.1731 24.6334 13.1354 22.4469L13.7672 22.0868C13.8873 22.1952 15.8227 23.9479 18.4699 23.9913C18.4699 23.9913 18.4788 23.9913 18.4833 23.9913C18.4877 23.9913 18.4922 23.9913 18.5011 23.9913C21.1483 23.9436 23.0882 22.1952 23.2038 22.0868L23.8356 22.4469C21.7979 24.6377 19.124 24.6551 19.124 24.6551V28.0087H21.6422V25.731C26.7721 25.102 28.0979 20.9805 28.0979 20.9805C28.4227 19.987 28.9833 19.7397 28.9833 19.7397C27.5106 19.5011 26.9812 20.5987 26.9812 20.5987L26.999 20.59ZM23.7155 18.4165H23.711L20.2452 16.5293L20.2274 12.4859H20.2452C20.2452 12.4859 24.4229 13.5922 23.7155 18.4165ZM16.7526 12.4859H16.7704L16.7526 16.5293L13.2867 18.4208H13.2822C12.5748 13.5922 16.7526 12.4859 16.7526 12.4859ZM18.51 19.3926L21.967 21.3623L21.9358 21.3492C20.699 22.2993 19.5199 22.6161 18.5011 22.6161C17.4822 22.6161 16.3032 22.2993 15.0663 21.3492L15.0352 21.3666L18.51 19.3926Z" fill="white"/>
</svg>
