<svg width="37" height="37" viewBox="0 0 37 37" fill="none" xmlns="http://www.w3.org/2000/svg">
<rect width="37" height="37" rx="14" fill="#0064FF"/>
<path d="M15.4866 19.5298V17.3374H14.4141V16.1864H15.4866V14.7967L16.8014 14.4219V16.1826H18.4405V17.3337H16.8014V19.5033C16.8014 20.0788 17.0936 20.4196 17.596 20.4196C17.8846 20.4196 18.0949 20.359 18.3158 20.1848L18.7861 21.2261C18.4369 21.5101 17.9808 21.6464 17.482 21.6464C16.2064 21.6502 15.4866 20.8853 15.4866 19.5298Z" fill="white"/>
<path d="M18.8438 18.8493C18.8438 17.2552 20.0054 16.0625 21.5732 16.0625C23.141 16.0625 24.3026 17.259 24.3026 18.8493C24.3026 20.4396 23.141 21.6399 21.5732 21.6399C20.0054 21.6399 18.8438 20.4434 18.8438 18.8493ZM21.5803 20.3942C22.382 20.3942 22.9842 19.7354 22.9842 18.8531C22.9842 17.9709 22.382 17.3082 21.5803 17.3082C20.7786 17.3082 20.1764 17.9671 20.1764 18.8493C20.1764 19.7316 20.775 20.3942 21.5803 20.3942Z" fill="white"/>
<path d="M24.6562 20.2385L25.9604 19.8636C26.0459 20.2953 26.42 20.5376 27.0294 20.5376C27.5282 20.5376 27.8917 20.2991 27.8917 19.981C27.8917 19.7462 27.6387 19.5796 27.2467 19.4925L26.274 19.2729C25.3511 19.0647 24.781 18.5421 24.781 17.7924C24.781 16.7474 25.6326 16.0469 26.8797 16.0469C27.995 16.0469 28.843 16.5883 29.0675 17.4554L27.8489 17.8151C27.7705 17.3986 27.3821 17.126 26.8476 17.126C26.3951 17.126 26.0958 17.3494 26.0958 17.6675C26.0958 17.9136 26.3025 18.0423 26.6374 18.1218L27.7776 18.3983C28.6471 18.6065 29.1744 19.1253 29.1744 19.875C29.1744 20.9693 28.3121 21.6319 26.9153 21.6319C25.6931 21.6319 24.838 21.1056 24.6598 20.2423" fill="white"/>
<path d="M29.5 20.2385L30.8041 19.8636C30.8897 20.2953 31.2638 20.5376 31.8731 20.5376C32.372 20.5376 32.7354 20.2991 32.7354 19.981C32.7354 19.7462 32.4824 19.5796 32.0905 19.4925L31.1177 19.2729C30.1948 19.0647 29.6247 18.5421 29.6247 17.7924C29.6247 16.7474 30.4763 16.0469 31.7234 16.0469C32.8387 16.0469 33.6868 16.5883 33.9113 17.4554L32.682 17.8114C32.6036 17.3948 32.2152 17.1222 31.6807 17.1222C31.2282 17.1222 30.9289 17.3456 30.9289 17.6637C30.9289 17.9098 31.1355 18.0385 31.4705 18.1181L32.6107 18.3945C33.4801 18.6027 34.0075 19.1215 34.0075 19.8712C34.0075 20.9655 33.1452 21.6281 31.7484 21.6281C30.5333 21.6319 29.6817 21.1094 29.5036 20.2423" fill="white"/>
<path d="M8.57604 15.4719L8.9965 13.3818C9.01432 13.2758 8.93237 13.1811 8.8326 13.2076C8.22685 13.3212 7.59616 13.5219 6.96903 13.8059C4.15053 15.0743 2.44731 17.5545 3.16351 19.3492C3.70512 20.6934 5.4511 21.269 7.47857 20.9358L7.05811 23.0259C7.0403 23.1319 7.12225 23.2266 7.22202 23.2001C7.82777 23.0865 8.45846 22.8858 9.08558 22.598C11.9005 21.3333 13.6002 18.8532 12.884 17.0509C12.3459 15.7105 10.6 15.1349 8.57248 15.4719" fill="white"/>
</svg>
