<svg width="37" height="37" viewBox="0 0 37 37" fill="none" xmlns="http://www.w3.org/2000/svg">
<rect width="37" height="37" rx="14" fill="#00286C"/>
<path d="M28.2322 20.2101C28.2322 19.8561 28.5723 19.564 28.9987 19.564C29.4251 19.564 29.7652 19.8561 29.7652 20.2101C29.7652 20.564 29.4251 20.8544 28.9987 20.8561C28.5723 20.8561 28.2322 20.564 28.2322 20.2101ZM27.395 20.2101C27.395 20.9042 28.1166 21.4592 29.0004 21.4609C29.8843 21.4609 30.6041 20.906 30.6059 20.2101C30.6059 19.5159 29.8826 18.9609 29.0004 18.9592C28.1166 18.9592 27.3967 19.5159 27.395 20.2101ZM26.2125 17.851C26.2125 17.5503 26.5025 17.3029 26.865 17.3029C27.2275 17.3029 27.5158 17.5503 27.5176 17.851C27.5176 18.1517 27.2275 18.3991 26.865 18.3991C26.5025 18.3991 26.2125 18.1517 26.2125 17.851ZM25.4909 17.851C25.4909 18.4472 26.1106 18.9214 26.865 18.9214C27.6211 18.9214 28.2391 18.4455 28.2391 17.851C28.2391 17.2548 27.6211 16.7805 26.865 16.7788C26.1089 16.7788 25.4909 17.2548 25.4909 17.851ZM19.896 19.3063V20.7101C19.9116 20.9867 20.136 21.2066 20.4139 21.2187H24.1755V20.6809H20.8282C20.8075 20.6809 20.7989 20.6706 20.792 20.6517C20.7868 20.6362 20.7851 20.619 20.7851 20.6121V19.3063H19.8978H19.896ZM8.21774 16.3527H9.47793V15.8132H6.19454L6.39133 16.3527H7.46508C7.46508 16.3802 7.45645 16.7444 7.42365 16.9283C7.32525 17.4833 6.95238 17.8733 6.60367 18.1259C6.25323 18.3785 5.90625 18.497 5.90625 18.497L6.12894 18.9455L6.14448 18.942C7.25448 18.7101 7.72748 17.985 7.84141 17.7805C7.95535 17.985 8.42835 18.7118 9.53834 18.942L9.55388 18.9455L9.77657 18.497C9.77657 18.497 9.42959 18.3767 9.07915 18.1259C8.72872 17.8733 8.35584 17.4833 8.25917 16.9283C8.22637 16.7427 8.21601 16.3802 8.21774 16.3527ZM11.275 19.4317V15.6431H10.3911V17.0726L10.0683 16.7513C10.0683 16.7513 9.97164 16.6551 9.87497 16.7513L9.44167 17.1826C9.44167 17.1826 9.345 17.2788 9.44167 17.375L9.87497 17.8063C9.87497 17.8063 9.97164 17.9025 10.0683 17.8063L10.3911 17.4867V19.43H11.275V19.4317ZM7.52723 21.2187H11.2767V20.674H7.94153C7.91564 20.674 7.90528 20.662 7.89665 20.6448C7.88802 20.6293 7.88802 20.6121 7.88629 20.6121V19.3029H6.99553V20.6963C7.0128 20.9798 7.24239 21.2049 7.52723 21.217M13.8972 16.9575H16.5643V17.4678H13.9835C13.9386 17.4678 13.9214 17.4489 13.9093 17.4283C13.9007 17.4111 13.8989 17.3922 13.8972 17.3853V16.9558V16.9575ZM13.564 18.009H17.4482V17.9884V15.6431H16.5643V16.418H13.8972V15.6431H13.0133V17.4334C13.0358 17.7307 13.2706 17.9747 13.5658 18.0073M15.7426 18.9541H18.2664V18.4145H12.3418L12.5386 18.9541H14.8587V19.4472H12.9581L13.1549 19.9867H16.5988V21.2221H17.4844V19.4472H15.7426V18.9541ZM22.6909 16.7977C22.6909 17.1345 22.3663 17.4128 21.9589 17.4128C21.5515 17.4128 21.227 17.1345 21.227 16.7977C21.227 16.4609 21.5515 16.1826 21.9589 16.1826C22.3663 16.1826 22.6892 16.4609 22.6909 16.7977ZM23.4936 16.7977C23.4936 16.1328 22.8031 15.6018 21.9589 15.6018C21.1148 15.6018 20.4243 16.1328 20.4243 16.7977C20.4243 17.4627 21.1148 17.9936 21.9589 17.9936C22.8031 17.9936 23.4936 17.4627 23.4936 16.7977ZM19.114 18.9541H24.8435V18.4145H18.919L19.1157 18.9541H19.114ZM25.377 16.5881H28.4497V16.0486H27.3587V15.4609H26.4749V16.0486H25.1681L25.3649 16.5881H25.3787H25.377ZM30.9062 15.6242H30.0224V16.9575H29.596V15.6242H28.7121V18.7204H29.596V17.5005H30.0224V19.0022H30.9062V15.6242Z" fill="white"/>
</svg>
