<svg width="37" height="37" viewBox="0 0 37 37" fill="none" xmlns="http://www.w3.org/2000/svg">
<rect width="37" height="37" rx="14" fill="#00447C"/>
<path d="M28.2771 14.7333C27.2302 13.675 25.5102 13.8583 24.4882 14.9417C23.167 16.3333 22.1367 16.8583 20.9069 16.8C19.1953 16.725 18.3477 15.4 17.4753 13.725C16.5613 11.975 15.157 11 13.4038 11C10.6535 11 9 13.2333 9 15.7333C9 19.5667 11.6921 21.8667 13.5534 22.8333C15.0989 23.6417 16.8189 23.9833 18.356 24.0167C18.2646 24.9333 17.9988 26.1417 17.6996 27H20.8488C20.5413 26.1417 20.2671 24.8333 20.1757 23.9167C24.7873 23.3167 26.9809 21.2167 28.1774 19.2167C28.7175 18.3417 29 17.425 29 16.6083C29 15.8917 28.7673 15.2417 28.2688 14.75M13.4287 17.1333C12.5314 17.1917 11.7752 16.5167 11.7171 15.625C11.6672 14.7333 12.3319 13.9667 13.2293 13.9083C14.1184 13.85 14.8745 14.5333 14.9327 15.425C14.9909 16.3167 14.3178 17.0833 13.4287 17.1417" fill="white"/>
</svg>
