<svg width="37" height="37" viewBox="0 0 37 37" fill="none" xmlns="http://www.w3.org/2000/svg">
<rect width="37" height="37" rx="14" fill="#528A3C"/>
<path d="M26.9427 19.7744L25.7475 19.0078C24.9713 19.545 23.8993 19.5993 23.0553 19.0561C23.0553 19.0561 19.4204 16.7321 19.0877 16.5148C18.6872 16.2553 18.1882 16.2372 17.7631 16.5088C17.338 16.7804 13.7832 19.0561 13.7832 19.0561C12.9392 19.5993 11.8733 19.545 11.0909 19.0078L9.90188 19.7744C8.90382 20.4142 8.62043 21.7241 9.27347 22.708C9.92652 23.6858 11.2634 23.9635 12.2676 23.3237L17.8124 19.7744C18.2498 19.5088 18.6071 19.5088 19.0384 19.7744L24.5831 23.3237C25.5812 23.9635 26.9243 23.6919 27.5773 22.708C28.2304 21.7301 27.947 20.4202 26.9489 19.7744H26.9427Z" fill="white"/>
<path d="M18.0182 13.1928C18.1414 13.1204 18.2831 13.0781 18.4372 13.0781C18.5912 13.0781 18.7329 13.1204 18.8499 13.1928C19.0779 13.3256 21.4929 14.895 21.4929 14.895C22.2938 15.4081 23.3227 15.3055 24.0065 14.7079L25.3804 15.5892C26.2306 16.1325 26.4709 17.2492 25.9102 18.0821C25.3558 18.9151 24.216 19.1506 23.3658 18.6013C23.3658 18.6013 19.429 16.0842 19.0471 15.8729C18.6651 15.6556 18.2154 15.6496 17.8211 15.8729C17.5007 16.06 13.4838 18.6013 13.4838 18.6013C12.6398 19.0962 11.4939 18.9091 10.9394 18.0821C10.3849 17.2492 10.6252 16.1325 11.4693 15.5892L12.8431 14.7079C13.5208 15.3055 14.5497 15.4081 15.3506 14.895C15.3506 14.895 17.7779 13.3377 18.0182 13.1988V13.1928Z" fill="white"/>
<path d="M18.8973 12.5627L21.7991 14.4339C22.4952 14.8806 23.4255 14.6874 23.8814 14.0053C24.3373 13.3233 24.1402 12.4118 23.444 11.9651L18.8788 9.03754C18.5893 8.86249 18.2628 8.86249 17.9794 9.03754L13.4019 11.9711C12.7057 12.4178 12.5085 13.3293 12.9644 14.0114C13.4203 14.6935 14.3506 14.8866 15.0468 14.44L17.9917 12.5627C18.1272 12.4721 18.2751 12.4118 18.4476 12.4118C18.6201 12.4118 18.7679 12.4721 18.9035 12.5627H18.8973Z" fill="white"/>
<path d="M21.5383 25.698L19.1602 21.8891C18.9693 21.5753 18.6982 21.4123 18.4148 21.4062C18.1376 21.4123 17.8603 21.5753 17.6693 21.8891L15.2912 25.698C14.9832 26.1628 15.0571 26.9113 15.9073 26.9113H20.9161C21.7663 26.9113 21.8402 26.1688 21.5322 25.698H21.5383Z" fill="white"/>
</svg>
