<svg width="37" height="37" viewBox="0 0 37 37" fill="none" xmlns="http://www.w3.org/2000/svg">
<rect width="37" height="37" rx="14" fill="#F15A28"/>
<path d="M15.7898 19.2264C15.5167 16.8857 18.1139 15.007 21.5875 15.037C25.061 15.0611 28.0964 16.9817 28.3694 19.3165C28.6425 21.6573 26.0453 23.5359 22.5717 23.5119C19.0982 23.4879 16.0628 21.5732 15.7898 19.2324M29.0108 19.9527C28.6997 17.0537 25.2007 14.6709 21.2065 14.6409C17.2059 14.6109 14.2213 16.9337 14.5388 19.8386C14.8563 22.7376 18.3489 25.1144 22.3431 25.1504C26.3437 25.1804 29.3283 22.8516 29.0108 19.9527Z" fill="white" fill-opacity="0.5"/>
<path d="M22.9733 25.2075C21.0047 27.1522 17.8424 27.3142 15.9183 25.5676C13.9878 23.821 14.0196 20.826 15.9881 18.8814C17.9567 16.9367 21.119 16.7807 23.0431 18.5213C24.9736 20.2679 24.9418 23.2569 22.9733 25.2075ZM15.677 18.8274C13.3909 21.0901 13.3528 24.5653 15.5944 26.594C17.836 28.6226 21.5128 28.4366 23.7988 26.1738C26.0849 23.9111 26.123 20.4359 23.8814 18.4072C21.6398 16.3786 17.9694 16.5646 15.677 18.8274Z" fill="white" fill-opacity="0.7"/>
<path d="M15.8858 11.5426C19.9817 10.0902 24.0331 11.5607 24.9285 14.8197C25.8302 18.0788 23.2393 21.9021 19.1435 23.3486C15.0476 24.8011 10.9962 23.3306 10.0945 20.0715C9.19911 16.8124 11.79 12.9951 15.8858 11.5426ZM12.0821 12.7911C7.83383 15.9661 6.7543 20.5757 9.66903 23.0785C12.5838 25.5813 18.3942 25.0351 22.6424 21.8541C26.8907 18.673 27.9702 14.0635 25.0555 11.5607C22.1408 9.05782 16.3304 9.61 12.0821 12.7911Z" fill="white"/>
</svg>
