<svg width="37" height="37" viewBox="0 0 37 37" fill="none" xmlns="http://www.w3.org/2000/svg">
<rect width="37" height="37" rx="14" fill="#FFE400"/>
<path d="M24.8176 21.5644C24.6662 20.4057 24.1598 19.4289 23.3142 18.6593C23.1892 18.5453 23.0586 18.4392 22.9114 18.313C23.0328 18.2165 23.1352 18.1421 23.2302 18.0579C23.8342 17.5265 24.2787 16.8772 24.5687 16.1024C24.8446 15.3664 24.9139 14.6032 24.8152 13.8342C24.6938 12.8911 24.3173 12.0567 23.7017 11.3499C23.2578 10.8404 22.741 10.4391 22.1346 10.1776C21.5509 9.92643 20.9518 9.8125 20.3062 9.8125L13.2877 9.81379C13.2393 9.81379 13.1902 9.81121 13.1418 9.81703C12.9701 9.83775 12.8689 9.95297 12.861 10.1355C12.8585 10.1866 12.861 10.2378 12.861 10.2896C12.861 15.6253 12.861 20.9611 12.861 26.2969C12.861 26.3778 12.8567 26.4587 12.8622 26.5383C12.872 26.6788 12.9634 26.783 13.0952 26.8063C13.1424 26.8147 13.1921 26.8121 13.2405 26.8121H20.5092C21.2553 26.8121 21.9531 26.614 22.5963 26.2237C23.5178 25.6644 24.1763 24.8618 24.5687 23.8106C24.8409 23.0804 24.917 22.325 24.8176 21.5644ZM19.2308 22.1405H17.9193V14.501H19.2161C19.2161 14.501 19.2106 14.4977 19.2161 14.4977C19.2161 14.499 19.2161 14.5003 19.2161 14.501H19.2308V22.1405Z" fill="#1E1719"/>
</svg>
