<svg width="37" height="37" viewBox="0 0 37 37" fill="none" xmlns="http://www.w3.org/2000/svg">
<rect width="37" height="37" rx="14" fill="#00286C"/>
<path d="M29.1605 20.5144C29.1605 20.16 29.5274 19.87 29.9874 19.8683C30.4475 19.8683 30.8143 20.16 30.8143 20.5144C30.8143 20.8671 30.4455 21.1588 29.9874 21.1606C29.5274 21.1606 29.1605 20.8688 29.1605 20.5144ZM28.256 20.5144C28.256 21.2089 29.0344 21.7638 29.9874 21.7656C30.9405 21.7656 31.7188 21.2089 31.7208 20.5144C31.7208 19.8199 30.9405 19.265 29.9874 19.2632C29.0344 19.2632 28.256 19.8199 28.256 20.5144ZM26.9807 18.1552C26.9807 17.8545 27.2932 17.6075 27.6853 17.6075C28.0774 17.6075 28.388 17.8563 28.388 18.1552C28.388 18.456 28.0755 18.703 27.6853 18.703C27.2932 18.703 26.9827 18.4542 26.9807 18.1552ZM26.2004 18.1552C26.2004 18.7513 26.8682 19.2256 27.6834 19.2256C28.4986 19.2256 29.1664 18.7513 29.1664 18.1552C29.1664 17.5592 28.4986 17.0848 27.6834 17.083C26.8682 17.083 26.2004 17.5592 26.2004 18.1552ZM20.1638 19.6105V21.0138C20.1812 21.2895 20.4239 21.5114 20.7228 21.5222H24.7835V20.9852H21.1712C21.1479 20.9852 21.1401 20.9745 21.1304 20.9566C21.1246 20.9422 21.1226 20.9243 21.1226 20.9172V19.6123H20.1638V19.6105ZM7.99145 20.5126C7.99145 20.1618 8.35636 19.8718 8.81251 19.8718C9.26866 19.8718 9.63163 20.1618 9.63357 20.5126C9.63357 20.8635 9.26866 21.1517 8.81251 21.1517C8.35636 21.1517 7.99339 20.8617 7.99145 20.5126ZM7.09468 20.5126C7.09468 21.2018 7.86722 21.7513 8.81251 21.7531C9.7578 21.7531 10.5284 21.2018 10.5303 20.5126C10.5303 19.8235 9.7578 19.274 8.81251 19.2722C7.86722 19.2722 7.09662 19.8235 7.09468 20.5126ZM7.96039 18.1928H8.90762V16.1451H5.52437L5.73401 16.6803H7.96233V18.1928H7.96039ZM5.25651 19.0091H9.43171V18.4739H7.24608V17.4607H6.29885V18.4739H5.04688L5.25651 19.0091ZM11.7648 17.6433C11.7648 17.6433 11.8677 17.5467 11.7648 17.4518L11.3009 17.024C11.3009 17.024 11.1981 16.9291 11.0932 17.024L10.6953 17.3909V16.0198H9.7481V19.1791H10.6953V17.7024L11.0932 18.0693C11.0932 18.0693 11.1961 18.1642 11.3009 18.0693L11.7648 17.6415V17.6433ZM17.7394 18.6564L17.9801 18.2107L17.9529 18.2054C17.9529 18.2054 17.5181 18.1105 17.0348 17.8724C16.5573 17.6379 16.0352 17.262 15.8313 16.7054H17.6928V16.1702H13.0188L13.2284 16.7054H14.8899C14.6861 17.262 14.164 17.6379 13.6865 17.8724C13.2012 18.1105 12.7684 18.2054 12.7684 18.2054L12.7412 18.2107L12.9819 18.6564H12.9974C14.3018 18.5759 15.1753 17.6952 15.3616 17.4912C15.5499 17.697 16.4214 18.5759 17.7258 18.6564H17.7394ZM15.8372 19.7716H18.5372V19.1916H12.1764L12.386 19.7716H14.8744V21.5723H15.8391V19.7716H15.8372ZM23.1802 17.1027C23.1802 17.4393 22.8288 17.7185 22.3902 17.7185C21.9515 17.7185 21.6001 17.441 21.6001 17.1027C21.6001 16.7662 21.9515 16.487 22.3902 16.487C22.8288 16.487 23.1782 16.7662 23.1802 17.1027ZM24.0459 17.1027C24.0459 16.4387 23.3005 15.907 22.3882 15.907C21.4779 15.907 20.7325 16.4387 20.7306 17.1027C20.7306 17.7668 21.4759 18.2984 22.3882 18.2984C23.2986 18.2984 24.0439 17.7668 24.0459 17.1027ZM19.3214 19.2579H25.5036V18.7191H19.1098L19.3214 19.2579ZM26.0781 16.8933H29.3935V16.3545H28.2152V15.7656H27.2602V16.3545H25.8491L26.0607 16.8933H26.0762H26.0781ZM32.0469 15.9285H31.0919V17.262H30.6318V15.9285H29.6769V19.0252H30.6318V17.8044H31.0919V19.3062H32.0469V15.9285Z" fill="white"/>
</svg>
