<svg width="37" height="37" viewBox="0 0 37 37" fill="none" xmlns="http://www.w3.org/2000/svg">
<rect width="37" height="37" rx="14" fill="#002063"/>
<path d="M22.6065 23.5717C22.6065 26.6433 21.6143 27.8685 19.7961 28.3797C19.745 28.3924 19.745 28.4473 19.7961 28.46C20.2049 28.5656 20.6861 28.6163 21.2226 28.6163C23.9606 28.6163 25.9917 26.7573 25.9917 23.5717V12.9375H22.6022V23.5675L22.6065 23.5717Z" fill="white"/>
<path d="M16.0154 17.8805C12.9964 15.992 12.7324 15.6244 12.7324 14.9695C12.7324 14.3527 13.418 13.6344 15.4619 13.0303C15.5342 13.0092 15.5385 12.9458 15.4533 12.9416C12.3449 12.7768 10.1562 14.3527 10.1562 16.1229C10.1562 17.4116 10.6332 18.2101 13.7331 20.1493C16.7776 22.0506 17.1055 22.4139 17.1055 23.111C17.1055 23.9645 16.1219 24.8095 14.3036 25.346C14.227 25.3671 14.2227 25.4347 14.3164 25.439C17.6974 25.6206 19.7923 23.9349 19.7923 22.1689C19.7923 20.9563 19.3112 19.9508 16.0154 17.8848" fill="white"/>
<path d="M12.6613 22.5608C12.078 21.9186 11.2306 21.4538 10.0724 21.2891C10.0468 21.2891 10.0298 21.2891 10.017 21.3017C10.0043 21.3144 10 21.3313 10 21.3524C10.0426 22.5143 10.4216 23.4015 11.0049 24.0437C11.584 24.6859 12.4356 25.1507 13.5938 25.3154C13.6151 25.3154 13.6364 25.3154 13.6449 25.3028C13.662 25.2943 13.6662 25.2774 13.6662 25.2521C13.6236 24.0944 13.2447 23.203 12.6613 22.5608Z" fill="white"/>
<path d="M18.7082 14.3108C18.1248 13.6686 17.2775 13.1996 16.1193 13.0391C16.098 13.0391 16.0767 13.0391 16.0639 13.0517C16.0511 13.0644 16.0469 13.0813 16.0469 13.1024C16.0895 14.2601 16.4684 15.1515 17.0475 15.7895C17.6309 16.4317 18.4825 16.8964 19.6407 17.0612C19.662 17.0612 19.6833 17.0612 19.6961 17.0485C19.7088 17.0359 19.7174 17.019 19.7131 16.9978C19.6705 15.8402 19.2916 14.953 18.7082 14.3108Z" fill="white"/>
<path d="M24.7418 7.99188C24.0051 7.18492 22.9363 6.59765 21.48 6.39062C21.4545 6.39062 21.4289 6.39062 21.4162 6.40752C21.3991 6.4202 21.3906 6.44555 21.3906 6.4709C21.4417 7.92851 21.9229 9.0439 22.651 9.85086C23.3834 10.6578 24.4522 11.2451 25.9085 11.4479C25.9383 11.4479 25.9596 11.4479 25.9766 11.431C25.9894 11.4141 26.0022 11.393 26.0022 11.3634C25.9468 9.91001 25.4699 8.7904 24.7418 7.98343" fill="white"/>
</svg>
