<svg width="37" height="37" viewBox="0 0 37 37" fill="none" xmlns="http://www.w3.org/2000/svg">
<rect width="37" height="37" rx="14" fill="#0068B7"/>
<path d="M19.5377 13.8592L20.4225 12.0235C20.4225 12.0235 20.5498 11.8482 19.5377 11.455C18.5241 11.0619 15.1055 10.3191 12.8689 12.4166C10.6318 14.5136 11.8553 16.9618 12.8689 17.7915C13.8749 18.6167 15.9698 19.7616 15.9698 21.3726C15.9698 22.6562 15.0688 23.3535 15.0688 23.3535C16.2927 22.6112 18.5546 21.2871 17.7227 18.7101C17.0845 16.7356 14.9791 16.3064 14.431 14.9966C13.882 13.6849 15.6683 11.6788 18.2713 12.4611C19.5792 12.8532 19.5377 13.8597 19.5377 13.8597" fill="white"/>
<path d="M12.8672 17.788C13.8727 18.6133 15.9681 19.7581 15.9681 21.3691C15.9681 22.6527 15.0671 23.3501 15.0671 23.3501C16.291 22.6078 18.5524 21.2837 17.7205 18.7061C17.0823 16.7311 14.9769 16.3024 14.4293 14.9922L12.8672 17.788Z" fill="white"/>
<path d="M14.385 23.9568C14.385 23.9568 13.0718 24.098 12.0205 23.6891C10.1083 22.9404 9.53399 20.8236 9.63941 19.2812L8 22.9927C8 22.9927 9.58599 25.592 12.2748 25.7915C14.5467 25.959 16.1331 25.3347 17.4181 23.898C18.2739 22.9394 19.9152 19.9796 19.2402 19.3672C18.3106 21.5526 16.8758 23.4841 14.3854 23.9563" fill="white"/>
<path d="M27.0077 15.6079C25.3878 15.5032 23.6063 16.5191 22.5478 17.2515C22.5478 17.2515 24.1987 13.2086 24.5278 12.493C24.856 11.7774 24.7353 11.2578 23.7756 11.2578H21.778C22.4539 11.7468 22.0026 12.7928 22.0026 12.7928C17.4813 23.4363 17.9783 22.2639 17.2041 24.111C16.5149 25.7566 18.3146 25.7032 18.3146 25.7032H20.0017C20.0017 25.7032 19.3158 25.3407 19.5791 24.5668C19.6344 24.4073 20.16 22.9879 20.16 22.9879C22.7048 17.6535 25.468 17.2451 25.7837 17.9676C26.3594 19.2888 24.5893 22.8664 24.1658 24.1105H24.1653C23.4756 25.7571 25.2753 25.7032 25.2753 25.7032H26.9609C26.9609 25.7032 26.3222 25.3407 26.586 24.5668C26.6871 24.268 27.747 21.1018 27.8519 20.7645C28.5698 18.4477 29.3573 15.7605 27.0082 15.6074" fill="white"/>
</svg>
