<svg width="37" height="37" viewBox="0 0 37 37" fill="none" xmlns="http://www.w3.org/2000/svg">
<rect width="37" height="37" rx="14" fill="#F5821F"/>
<path d="M11.7349 13.8125C11.6947 14.0856 11.1426 17.9327 11.0938 18.2921H12.3272C12.3646 18.019 12.9167 14.1719 12.9713 13.8125H11.7378H11.7349Z" fill="white"/>
<path d="M21.8209 13.8125C21.7835 14.0856 21.2314 17.9327 21.1797 18.2921H24.0722C24.0981 18.0966 24.1728 17.5762 24.2102 17.326H22.4592L22.5771 16.498H24.1671C24.1958 16.3053 24.2619 15.8395 24.2964 15.5951H22.7064L22.8243 14.7786H24.5293C24.5581 14.5831 24.6329 14.0626 24.6702 13.8125H21.8237H21.8209Z" fill="white"/>
<path d="M8.08412 16.3772C8.08412 16.3772 9.11633 14.0166 9.19684 13.8125H10.7495C10.7495 14.1259 10.5424 17.973 10.5453 18.2921H9.42685L9.61087 15.1552C9.61087 15.1552 8.35439 18.0909 8.27101 18.2921H7.38831L6.99153 15.1552C6.96277 15.299 6.54299 17.3922 6.31584 18.2921H5.20312C5.31813 17.8925 6.16921 14.0425 6.23534 13.8125H7.73046L8.08124 16.3772H8.08412Z" fill="white"/>
<path d="M19.6597 17.3864C19.6597 17.3864 19.7402 18.1167 19.7661 18.2921H20.9507C20.8845 17.9241 20.2405 14.0741 20.1916 13.8125H18.6936C18.6073 13.9994 16.8966 17.8522 16.6953 18.2921H17.8972C17.9604 18.1397 18.2652 17.3864 18.2652 17.3864H19.6597ZM18.6045 16.4606L19.3118 14.7987L19.5418 16.4606H18.6045Z" fill="white"/>
<path d="M14.6895 14.65H14.9655C15.1552 14.65 15.3651 14.6701 15.4945 14.8196C15.5865 14.926 15.621 15.0755 15.5923 15.2682C15.5923 15.2682 15.5549 15.6103 15.3306 15.7196C15.3306 15.7196 15.1754 15.8202 14.9166 15.826H14.3588L15.4111 18.2872H16.6072L15.7015 16.3982C16.2507 16.2975 16.6791 16.1336 16.7855 15.2826C16.7999 15.1762 16.8085 15.0727 16.8085 14.9778C16.8085 14.6615 16.7251 14.4085 16.5612 14.2187C16.2622 13.8766 15.7533 13.8047 15.3766 13.8047H13.6831C13.6429 14.0778 13.0937 17.9249 13.0391 18.2843H14.1633C14.2007 18.0342 14.6837 14.6471 14.6837 14.6471" fill="white"/>
<path d="M32.0051 13.8125C31.2863 16.7913 28.7014 18.4158 27.1833 19.2841L27.1172 19.1978C27.7411 18.6918 29.8803 17.1133 30.5617 14.4997L32.0051 13.8125Z" fill="white"/>
<path d="M20.0296 21.6406C20.0296 21.6406 20.0037 21.6435 19.9922 21.6464C20.0037 21.6464 20.0181 21.6435 20.0296 21.6406Z" fill="white"/>
<path d="M21.6513 21.3191C21.6714 21.3133 21.6944 21.3076 21.7174 21.3047C21.6944 21.3104 21.6714 21.3133 21.6484 21.3191H21.6513Z" fill="white"/>
<path d="M19.6792 21.6953C19.6533 21.7011 19.6274 21.7039 19.6016 21.7068C19.6274 21.7011 19.6504 21.6982 19.6792 21.6953Z" fill="white"/>
<path d="M22.126 21.2109C22.0397 21.2311 21.9534 21.2541 21.8672 21.2742C21.9534 21.2541 22.0397 21.2339 22.126 21.2109Z" fill="white"/>
<path d="M22.7186 21.0547C22.6639 21.0691 22.6122 21.0834 22.5547 21.0978C22.6093 21.0834 22.6639 21.0691 22.7186 21.0547Z" fill="white"/>
<path d="M24.0748 20.6562C23.9512 20.6965 23.8247 20.7368 23.6953 20.777C23.8247 20.7368 23.9541 20.6965 24.0777 20.6562" fill="white"/>
<path d="M23.6191 20.7969C23.5673 20.8141 23.5127 20.8285 23.4609 20.8458C23.5156 20.8285 23.5673 20.8141 23.6191 20.7969Z" fill="white"/>
<path d="M22.4373 21.1328C22.3827 21.1472 22.3309 21.1587 22.2734 21.1731C22.3281 21.1587 22.3798 21.1443 22.4373 21.1328Z" fill="white"/>
<path d="M18.6327 21.2979L18.305 21.134H18.3021L18.2963 21.1282C18.1928 21.0678 17.9455 20.9241 17.9455 20.6854C17.9455 20.5704 17.9916 20.4669 18.0749 20.3979C18.1756 20.3117 18.3337 20.28 18.5005 20.3117C18.7132 20.3433 18.9548 20.4813 19.2222 20.7113C19.3487 20.4669 19.5931 20.0011 19.6793 19.8344C19.3717 19.5813 19.0755 19.4462 18.6327 19.3686C18.0864 19.2881 17.5574 19.406 17.1865 19.6849C16.8731 19.9235 16.6804 20.2743 16.6287 20.6969C16.6201 20.7688 16.6172 20.8407 16.6172 20.9068C16.6172 21.1397 16.6661 21.341 16.7638 21.5106C17.4309 21.4963 18.1324 21.4617 18.8426 21.4042C18.7765 21.3669 18.7075 21.3295 18.6327 21.295" fill="white"/>
<path d="M23.624 19.5391C23.5981 19.726 23.509 20.3154 23.4688 20.6029C24.3371 20.3585 25.3923 20.0106 26.367 19.5391H23.624Z" fill="white"/>
<path d="M24.0757 20.6497C23.952 20.69 23.8255 20.7302 23.6961 20.7705C23.6702 20.7791 23.6415 20.7877 23.6156 20.7935C23.5639 20.8107 23.5092 20.8251 23.4575 20.8424C23.4287 20.851 23.4 20.8596 23.3712 20.8682C23.193 20.92 23.0089 20.9717 22.8192 21.0235C22.7847 21.0321 22.7502 21.0436 22.7128 21.0523C22.6582 21.0666 22.6064 21.081 22.5489 21.0954C22.5086 21.1069 22.4713 21.1155 22.431 21.127C22.3764 21.1414 22.3246 21.1529 22.2671 21.1673C22.2182 21.1788 22.1694 21.1903 22.1205 21.2018C22.0342 21.2219 21.948 21.2449 21.8617 21.265C21.81 21.2765 21.7611 21.288 21.7122 21.2995C21.6892 21.3053 21.6691 21.3081 21.6461 21.3139C21.14 21.4289 20.6024 21.5382 20.0302 21.6359C20.0158 21.6359 20.0043 21.6388 19.9928 21.6417C19.8893 21.6589 19.7858 21.6762 19.6794 21.6934C19.6535 21.6992 19.6277 21.7021 19.6018 21.7049C19.4925 21.7222 19.3804 21.7394 19.2682 21.7567C19.2596 21.7567 19.251 21.7596 19.2424 21.7596C18.6299 21.8487 17.983 21.9235 17.3073 21.9838C17.3073 21.9838 17.3016 21.9838 17.2987 21.9838C17.1952 21.9925 17.0917 22.0011 16.9882 22.0097C16.9767 22.0097 16.9652 22.0097 16.9566 22.0097C16.853 22.0183 16.7467 22.0241 16.6403 22.0327C16.6288 22.0327 16.6201 22.0327 16.6115 22.0327C16.5023 22.0385 16.393 22.0471 16.2866 22.0528C16.278 22.0528 16.2694 22.0528 16.2607 22.0528C16.1486 22.0586 16.0365 22.0643 15.9243 22.0701C15.9186 22.0701 15.9157 22.0701 15.9128 22.0701C15.3435 22.0988 14.7541 22.1132 14.1446 22.1132C14.1273 22.1132 14.1129 22.1132 14.0957 22.1132C13.9605 22.1132 13.8283 22.1132 13.6903 22.1132C13.6615 22.1132 13.6328 22.1132 13.604 22.1132C13.1152 22.1075 12.6121 22.0902 12.1003 22.0615H12.0888C11.3125 22.0183 10.5074 21.9551 9.67644 21.8602L10.631 20.9631C10.631 20.9631 11.1888 21.1299 11.9536 21.2679C11.8099 20.4024 11.6805 19.6405 11.6604 19.5312H10.1624C10.0761 19.7181 8.36533 23.571 8.16406 24.0109H9.36591C9.42917 23.8585 9.83458 22.8982 9.83458 22.8982H11.0853C11.0853 22.8982 11.2061 23.8355 11.2348 24.0109H12.4194C12.3935 23.8671 12.2785 23.1914 12.1463 22.4065C12.9887 22.4525 13.8369 22.464 14.6247 22.4496C14.665 22.5158 14.6851 22.5876 14.6851 22.6653C14.6851 22.694 14.6851 22.7199 14.6765 22.7486C14.6592 22.8493 14.6075 22.9327 14.5241 22.9902C14.3602 23.1052 14.1273 23.0793 13.9663 23.0505C13.5839 22.9844 13.282 22.694 13.0347 22.4525C12.8823 22.7026 12.5603 23.2288 12.4539 23.3985C12.9053 23.8096 13.3941 24.0598 13.9088 24.1316C14.4292 24.2093 14.9468 24.0943 15.332 23.8096C15.6656 23.5623 15.8783 23.2029 15.9416 22.7688C15.9617 22.6423 15.9703 22.5244 15.9646 22.4122C16.8099 22.3749 17.5115 22.3231 17.96 22.2829C18.1066 22.3921 18.1843 22.5186 18.1843 22.6653C18.1843 22.694 18.1814 22.7199 18.1757 22.7486C18.1584 22.8493 18.1066 22.9327 18.0233 22.9902C17.8594 23.1052 17.6265 23.0793 17.4655 23.0505C17.0831 22.9844 16.7783 22.694 16.5368 22.4525C16.3815 22.7026 16.0595 23.2288 15.956 23.3985C16.4074 23.8096 16.8962 24.0598 17.4108 24.1316C17.9341 24.2093 18.4488 24.0943 18.8312 23.8096C19.1676 23.5623 19.3775 23.2029 19.4436 22.7688C19.4839 22.5273 19.4753 22.3087 19.4178 22.1132C19.6075 22.0845 19.7915 22.0586 19.9698 22.0298C19.8347 22.97 19.7082 23.8499 19.6852 24.0138H22.5776C22.6064 23.8182 22.6812 23.2978 22.7157 23.0477H20.9618L21.0825 22.2196H22.6725C22.6984 22.0471 22.753 21.6561 22.7904 21.4002C23.0089 21.3312 23.1153 21.2909 23.1153 21.2909C23.1153 21.2909 23.653 21.1299 24.3488 20.8711C24.2482 21.5727 23.9434 23.7147 23.9003 24.0138H25.1539C25.1912 23.7492 25.6369 20.6497 25.6369 20.6497H26.5426C26.5714 20.4571 26.6576 19.8418 26.6979 19.5629C26.2263 19.8245 25.3379 20.2328 24.0728 20.6497" fill="white"/>
<path d="M15.5045 21.5221C15.3952 21.4387 15.2687 21.3611 15.122 21.2979C15.1163 21.295 14.7971 21.134 14.7971 21.134H14.7914L14.7885 21.1282C14.6821 21.0678 14.4377 20.9241 14.4377 20.6854C14.4377 20.5704 14.4837 20.4669 14.5671 20.3979C14.6706 20.3117 14.8259 20.28 14.9927 20.3117C15.2054 20.3433 15.4498 20.4813 15.7172 20.7113C15.8437 20.4669 16.0881 20.0011 16.1715 19.8344C15.8639 19.5813 15.5706 19.4462 15.1249 19.3686C14.5786 19.2881 14.0496 19.406 13.6787 19.6849C13.3653 19.9235 13.1726 20.2743 13.1209 20.6969C13.1123 20.7688 13.1094 20.8407 13.1094 20.9068C13.1094 21.1052 13.1439 21.2806 13.2158 21.4301C13.2416 21.4301 13.2675 21.433 13.2934 21.4359C13.8541 21.479 14.6218 21.5135 15.5045 21.5193" fill="white"/>
<path d="M21.3367 20.5051H23.0417C23.0704 20.3096 23.1452 19.7892 23.1797 19.5391H20.3361C20.3188 19.6541 20.2096 20.416 20.0859 21.2815C20.4798 21.2326 20.8709 21.1751 21.2504 21.1061L21.3367 20.5023V20.5051Z" fill="white"/>
</svg>
