<svg width="37" height="37" viewBox="0 0 37 37" fill="none" xmlns="http://www.w3.org/2000/svg">
<rect width="37" height="37" rx="14" fill="#005BAC"/>
<path d="M28.6941 15H27.2286V18.1168H21.2272V15H19.755C19.4035 15 19.125 15.2852 19.125 15.6366V22.4073C19.125 22.7587 19.4035 23.0373 19.755 23.0373H21.2272V19.6818H27.2286V23.0373H28.6941C29.0456 23.0373 29.3307 22.7521 29.3307 22.4073V15.6366C29.3307 15.2852 29.0456 15 28.6941 15Z" fill="white"/>
<path d="M16.7946 15H15.329V20.9218L10.7003 16.2401C9.96424 15.5239 9.46025 15 8.28649 15H7V22.4073C7 22.7587 7.28515 23.0373 7.63661 23.0373H9.10215V17.0889L13.6845 21.7441C14.4338 22.4802 15.1036 23.0439 16.1911 23.0439H17.4246V15.6366C17.4246 15.2852 17.1394 15 16.7946 15Z" fill="white"/>
</svg>
