<svg width="37" height="37" viewBox="0 0 37 37" fill="none" xmlns="http://www.w3.org/2000/svg">
<rect width="37" height="37" rx="14" fill="#632C00"/>
<path d="M17.1674 20.3047C17.3796 20.3047 17.7584 20.4785 18.2736 21.0144C20.9405 23.7809 23.9257 25.9681 26.4411 27.2862C26.8047 27.4745 27.0017 27.6193 27.0017 27.7931C27.0017 27.9235 26.9866 28.0683 26.6684 28.0683C26.1077 28.0683 22.9256 27.4745 22.0922 27.0979C21.2587 26.7213 19.4404 25.3163 17.2735 21.7531C17.031 21.3476 16.7734 20.9999 16.7734 20.6813C16.7734 20.3626 17.0765 20.3047 17.1674 20.3047Z" fill="white"/>
<path d="M24.3329 10.1268C24.3329 10.1268 24.8632 11.1262 19.7415 11.8069C20.3022 10.3006 20.6659 9.30114 20.6659 9.30114C20.9992 8.40311 20.2567 7.86719 19.7264 7.86719C19.196 7.86719 18.8172 8.25827 18.5899 8.75074L17.0746 12.0821C15.0744 12.2125 13.5894 12.1401 12.9227 12.0821C11.9983 11.9952 11.7559 12.4877 11.7559 12.9802C11.7559 13.8492 13.3621 14.7473 14.3925 14.6459C15.0441 14.5879 15.4229 14.559 15.9533 14.5155L10.3012 26.8852C10.089 27.3487 9.9072 28.0874 10.877 28.0874C11.8468 28.0874 14.044 27.2328 14.4077 26.2479C14.5592 25.8278 15.6957 22.7861 16.9534 19.3678C17.5746 19.2519 19.8627 18.9188 20.4992 18.9188C21.1053 18.9188 21.4084 19.1795 21.4084 19.4837C21.4084 20.1934 19.6203 22.2357 16.1503 24.756C15.7714 25.0312 16.0896 25.2485 16.2866 25.2485C16.817 25.2485 19.2112 23.6841 20.3931 22.8296C21.6963 21.8881 23.9541 19.4547 23.9541 17.7311C23.9541 17.0503 23.6359 16.4275 22.2266 16.4275C20.8174 16.4275 18.4232 16.7171 17.8929 16.7896C18.2262 15.8771 18.5596 14.979 18.8778 14.1389C21.5599 13.7768 23.151 13.5596 24.0904 13.3713C25.3936 13.1105 26.424 12.4008 26.424 11.6621C26.424 10.0978 24.3329 10.1123 24.3329 10.1123V10.1268Z" fill="white"/>
</svg>
