<svg width="37" height="37" viewBox="0 0 37 37" fill="none" xmlns="http://www.w3.org/2000/svg">
<rect width="37" height="37" rx="14" fill="#D7000F"/>
<path d="M14.1819 20.8592V19.4124H13.1289V21.0654C13.1289 21.4348 13.3642 21.7396 13.9586 21.7426H17.5399V20.9854H14.3146C14.2422 20.9854 14.1819 20.9269 14.1819 20.8592ZM28.8329 17.3499C28.8329 16.919 28.6398 16.5342 28.3109 16.2818H28.9023V15.6076H27.8161V15.0166H26.8054V15.6046H25.7132V16.2787H26.3196C25.9878 16.5342 25.7947 16.919 25.7947 17.3469C25.7947 18.1133 26.4614 18.7321 27.3123 18.7352C28.151 18.7352 28.8299 18.1164 28.8299 17.3469L28.8329 17.3499ZM27.3153 18.0672C26.8899 18.0672 26.6093 17.744 26.6063 17.3345C26.6063 16.9282 26.8899 16.6019 27.3153 16.6019C27.7407 16.6019 28.0243 16.9251 28.0243 17.3345C28.0243 17.744 27.7407 18.0672 27.3153 18.0672ZM20.8738 20.8592V19.7418H19.8359V21.0685C19.8359 21.4379 20.0712 21.7426 20.6686 21.7457H24.5184V20.9885H21.0096C20.9371 20.9885 20.8768 20.93 20.8768 20.8592H20.8738ZM18.8191 19.2154H25.2003V18.4581H18.8191V19.2154ZM22.0112 17.9748C23.0914 17.9748 23.9723 17.2853 23.9723 16.4234C23.9723 15.5615 23.0883 14.875 22.0112 14.875C20.9311 14.875 20.0501 15.5645 20.0471 16.4234C20.0471 17.2853 20.9311 17.9717 22.0112 17.9748ZM22.0112 15.6199C22.5634 15.6199 23.0039 15.9832 23.0039 16.4234C23.0039 16.8636 22.5634 17.2299 22.0112 17.2299C21.4591 17.2299 21.0156 16.8636 21.0156 16.4234C21.0156 15.9832 21.4561 15.6199 22.0112 15.6199ZM30.6039 15.0166V16.3002H30.1634V15.0166H29.2673V18.452H29.7772C30.0216 18.452 30.1634 18.2827 30.1634 18.0641V17.1129H30.6039V18.452H31.1138C31.3582 18.452 31.5 18.2827 31.5 18.0641V15.0166H30.6039ZM29.4816 18.7413C28.4195 18.7413 27.5536 19.4401 27.5536 20.3082C27.5536 21.1793 28.4195 21.8719 29.4816 21.875C30.5406 21.875 31.4065 21.1793 31.4065 20.3082C31.4065 19.437 30.5406 18.7413 29.4816 18.7413ZM29.4816 21.1208C28.9536 21.1208 28.5312 20.7545 28.5312 20.3082C28.5312 19.8618 28.9536 19.4955 29.4816 19.4955C30.0065 19.4955 30.4289 19.8618 30.4319 20.3082C30.4319 20.7545 30.0096 21.1208 29.4816 21.1208ZM17.389 15.0197H16.4024V19.6125H16.9908C17.2442 19.6125 17.389 19.437 17.389 19.2092V17.1868H18.2881V16.3372H17.389V15.0197ZM6.53956 18.0395H9.43295C10.0273 18.0395 10.2596 17.7316 10.2627 17.3622V15.0166H9.31529V15.6815H6.65421V15.0166H5.70986V17.3622C5.70986 17.7316 5.94519 18.0364 6.53956 18.0395ZM6.66024 16.4172H9.30624V17.1652C9.30624 17.236 9.24589 17.2945 9.17348 17.2945H6.79299C6.72058 17.2945 6.66024 17.236 6.66024 17.1652V16.4172ZM4.5 19.4863H7.4296V21.6564H8.07224C8.3468 21.6564 8.50369 21.4656 8.50369 21.1916V19.4863H11.2281V18.7198H4.5V19.4863ZM15.3374 18.7444L15.3646 18.7567L15.8051 18.1657L15.7598 18.1349C14.9361 17.5746 14.2995 16.7835 14.2995 15.8108V15.1644H13.2315V15.8108C13.2315 16.8235 12.4531 17.7686 11.7561 18.218L11.7259 18.2365L12.1664 18.8275L12.1936 18.8152C12.7427 18.5381 13.4728 17.787 13.7685 17.236C14.0491 17.7532 14.7521 18.452 15.3404 18.7444H15.3374Z" fill="white"/>
</svg>
