<svg width="37" height="37" viewBox="0 0 37 37" fill="none" xmlns="http://www.w3.org/2000/svg">
<rect width="37" height="37" rx="14" fill="#3352BC"/>
<path d="M16.7712 25.8928C15.8329 25.8003 14.7119 25.5049 13.7353 24.659C12.8353 23.8854 12.2805 22.8185 12.0098 21.878C11.7346 20.9171 11.6173 19.7961 12.0752 19.8863C12.215 19.9111 12.4586 20.5291 12.7225 20.978C12.9955 21.4404 13.2165 21.6975 13.424 21.8554C13.5187 21.9253 13.839 21.2148 14.3059 20.8088C14.5766 20.5833 14.8698 20.5066 14.9217 21.1765C14.9781 21.9952 14.8315 22.9674 15.0706 22.9674C15.2893 22.9674 15.7968 22.7982 16.9021 22.7057C17.3193 22.6697 17.5584 22.7486 17.1614 23.308C16.963 23.5877 16.6991 23.9824 16.0698 24.4335C17.0103 25.3154 18.1381 25.2071 18.1606 25.5816C18.1719 25.7981 17.7524 25.9176 17.1998 25.9176C17.0645 25.9176 16.9201 25.9109 16.7712 25.8951M19.938 17.9759C19.0764 17.7954 18.9005 17.015 18.9005 17.015C18.8305 16.7398 18.8125 16.3902 18.8711 15.9459C18.9884 15.0166 19.2388 14.5835 19.523 13.8618C19.9064 12.8941 18.9749 12.3303 19.126 11.9761C19.3358 11.4957 20.0012 12.107 20.7477 12.1521C21.3883 12.1859 21.774 12.1566 22.2702 12.222C22.9311 12.3077 23.7251 12.5333 24.0769 12.946C24.3995 13.325 23.9032 13.7851 23.3146 13.4986C22.8792 13.2866 22.3356 13.4152 22.6537 13.8685C23.0394 14.2971 23.2243 14.3106 23.6191 14.4121C24.7017 14.6986 24.7243 15.7361 23.989 16.2707C23.1589 16.8819 22.3086 16.6271 21.9725 15.4316C21.8033 14.8339 21.3816 14.5294 20.9485 14.7008C20.5199 14.87 20.7748 15.6549 21.1019 16.3835C21.668 17.8293 20.5245 17.9804 20.0846 17.9804C20.0147 17.9804 19.9651 17.9759 19.938 17.9736M19.3155 26.1635C19.3087 25.9718 19.5884 25.9244 19.5884 25.9244C22.1033 25.4282 21.368 23.7794 20.4793 22.9381C20.1049 22.5862 16.6066 19.5638 16.6066 19.5638C13.2706 16.6902 13.5368 14.4482 13.5368 14.4482C13.7014 11.6874 16.1149 11.0017 17.9441 11.1619C18.1584 11.1799 18.2779 11.3085 18.2373 11.4889C18.199 11.6829 17.9148 11.6965 17.9148 11.6965C17.3329 11.7303 16.8118 11.7889 16.4171 12.0573C14.9442 13.0498 15.3773 14.7347 17.3419 16.6113C17.59 16.8459 17.8516 17.0962 18.1246 17.3488C18.1246 17.3488 18.517 17.6962 19.3042 18.4428C20.8154 19.8344 21.6432 20.5833 21.6432 20.5833C24.307 22.8027 23.3958 24.8305 22.3808 25.5342C21.6026 26.0733 20.7432 26.3259 19.6155 26.3868H19.5861C19.4824 26.3868 19.3268 26.3259 19.32 26.1635M18.3005 10.1965C13.6135 10.4085 9.98432 14.3828 10.1963 19.0721C10.4084 23.7613 14.3826 27.3905 19.0719 27.1785C23.7589 26.9665 27.3903 22.9945 27.1805 18.3052C26.973 13.7445 23.2108 10.1875 18.6907 10.1875C18.5621 10.1875 18.4313 10.1898 18.3005 10.1965Z" fill="white"/>
</svg>
