<svg width="37" height="37" viewBox="0 0 37 37" fill="none" xmlns="http://www.w3.org/2000/svg">
<rect width="37" height="37" rx="14" fill="#213F96"/>
<path d="M12.187 14.1044L6 18.2704L12.1774 22.4316C15.5812 24.7217 18.4646 26.6071 18.5887 26.6071C18.8418 26.6214 30.9102 18.4513 30.9102 18.2847C30.9102 18.1704 18.8274 10.086 18.5458 10.0003C18.4455 9.97176 15.5907 11.8286 12.187 14.1044ZM23.63 14.8186C26.4036 16.6611 28.6712 18.2275 28.6712 18.2942C28.6712 18.3513 26.4036 19.9558 23.63 21.8555L18.5887 25.3025L13.7862 22.0602C11.1558 20.2748 8.8166 18.6941 8.60654 18.5418L8.21508 18.2751L13.2993 14.8662C16.1016 13.0093 18.4264 11.4715 18.4933 11.4715C18.5506 11.4572 20.8611 12.9665 23.63 14.8091V14.8186Z" fill="white"/>
<path d="M14.251 15.3866C11.9834 16.9244 10.1072 18.2194 10.0786 18.2766C10.0213 18.4575 15.3585 21.9617 15.5686 21.895C15.6688 21.8522 17.0819 20.9047 18.7193 19.7858C21.6314 17.7909 21.703 17.7624 22.0372 17.9719C22.2186 18.0956 22.3713 18.2242 22.3713 18.2385C22.3713 18.267 21.2781 19.0193 19.9605 19.9287C18.6286 20.8238 17.2299 21.7855 16.8671 22.0521L16.1939 22.5425L17.3158 23.2805C17.9316 23.6995 18.5045 24.0328 18.5904 24.0328C18.7718 24.0328 26.9065 18.4908 26.9638 18.3194C26.9782 18.2623 25.7035 17.3577 24.1329 16.3102L21.2638 14.4105L20.1133 15.1914L18.9771 15.9722L19.3399 16.196C19.5357 16.3055 19.7027 16.4626 19.7027 16.515C19.7027 16.5673 19.4211 16.7959 19.1012 17.0339L18.4854 17.4529L17.7693 16.9625C17.3635 16.6959 17.0389 16.434 17.0389 16.3769C17.0389 16.3197 17.7932 15.777 18.7193 15.1628C19.6311 14.5486 20.3854 14.0058 20.3997 13.9487C20.3997 13.8392 18.8434 12.7489 18.5522 12.6489C18.452 12.6204 16.509 13.8487 14.2414 15.3866H14.251ZM23.9229 16.4197C25.3359 17.3815 26.5151 18.2337 26.5437 18.2908C26.5724 18.3623 24.7774 19.6478 22.5814 21.1523L18.5761 23.8756L17.5975 23.2329C17.0676 22.8853 16.6331 22.5473 16.6331 22.5044C16.6475 22.4616 18.0176 21.4856 19.7123 20.3381L22.7771 18.2575L21.1397 17.1529C20.2422 16.5388 19.4879 16.0198 19.4593 15.996C19.402 15.9531 21.1254 14.6819 21.2638 14.6676C21.3068 14.6676 22.4955 15.4485 23.9229 16.415V16.4197ZM16.1557 17.9004C16.4899 18.1242 16.7429 18.3765 16.7 18.4432C16.657 18.5289 16.3372 18.7622 15.9982 19.0003L15.3824 19.4335L14.6663 18.9717C14.2892 18.7193 13.9645 18.4813 13.9645 18.4432C13.9645 18.3575 15.2535 17.4815 15.4062 17.4815C15.4779 17.4672 15.7977 17.6624 16.1462 17.9004H16.1557Z" fill="white"/>
</svg>
