<svg width="37" height="37" viewBox="0 0 37 37" fill="none" xmlns="http://www.w3.org/2000/svg">
<rect width="37" height="37" rx="14" fill="#E31737"/>
<path d="M12.1309 21.1654C11.515 20.878 11.01 20.644 11.01 20.1718C11.01 19.8105 11.2974 19.5518 11.864 19.5518C12.0734 19.5518 12.2459 19.5723 12.4224 19.6093C12.5127 19.6257 12.6154 19.638 12.6934 19.638C13.1902 19.638 13.4694 19.3424 13.6541 18.7799L13.7321 18.55C13.6541 18.5172 12.8412 18.1641 11.786 18.1641C10.1067 18.1641 9.21578 19.2439 9.21989 20.3648C9.21989 20.9273 9.39644 21.3378 9.67152 21.6622C10.0287 22.0769 10.5378 22.3479 11.01 22.5819C11.7039 22.9227 12.328 23.1731 12.328 23.6781C12.328 24.1257 11.8681 24.3802 11.2481 24.3802C10.4024 24.3802 9.66331 23.8957 9.56888 23.8383L8.875 25.1439C8.99817 25.2137 9.89324 25.7844 11.3672 25.7844C12.9356 25.7844 14.1222 24.8811 14.1222 23.4934C14.1222 22.1056 13.0218 21.6047 12.1309 21.1695" fill="white"/>
<path d="M18.2667 21.8065L21.112 18.3125H19.0838L16.8133 21.3303H16.7804V18.3125H15.1094V25.7152H15.2079C15.9305 25.7152 16.7927 25.3786 16.7927 24.1715V22.4717H16.8297L19.1413 25.6249H21.2681L18.2667 21.8065Z" fill="white"/>
<path d="M21.2125 10.3869C20.6213 10.4978 19.7509 11.0315 19.755 11.98C19.755 12.8381 20.457 13.3595 20.4612 14.4845C20.4612 15.3303 19.9972 15.901 19.4922 16.2171C19.6975 16.1966 19.9192 16.1884 20.1655 16.1884C20.6829 16.1884 20.9908 16.2377 21.0113 16.2377L23.6514 12.99C22.9164 11.8896 22.0624 11.0397 21.2125 10.3828" fill="white"/>
<path d="M23.4288 19.1468C23.7613 18.6294 23.8024 17.8042 23.8311 16.9625C23.864 16.1783 24.0241 15.587 25.0752 15.5829C25.3092 15.5829 25.5309 15.6158 25.9292 15.6117C27.4647 15.6035 28.4666 15.0738 29.0906 14.7289C27.8178 13.916 25.9579 13.0866 23.6505 12.9922C23.4986 13.4192 22.3325 16.671 22.2422 16.9337C22.2545 16.9502 22.4598 17.1801 22.7185 17.6276C23.0962 18.2435 23.2974 18.7649 23.4329 19.1468" fill="white"/>
<path d="M17.8476 16.4886C17.7162 16.4886 17.6505 16.4023 17.63 16.2463C17.6135 16.0903 16.9525 10.0466 16.854 9.12687C16.8416 8.99138 16.8047 8.74914 16.8047 8.65881C16.8088 8.51922 16.8991 8.44531 17.01 8.44531C17.322 8.44531 19.0259 8.84357 20.8366 10.1123C20.3151 10.2601 19.3708 10.802 19.3749 11.927C19.379 12.9206 20.0893 13.4667 20.0934 14.4685C20.0975 16.0903 18.2376 16.4844 17.8476 16.4844" fill="white"/>
<path d="M23.5781 19.5758C23.6069 19.6539 23.6315 19.7154 23.6602 19.7606C23.7013 19.8304 23.7547 19.8632 23.8245 19.8632C23.8655 19.8632 23.9189 19.8468 23.9764 19.8222C24.116 19.7565 29.6301 17.1904 30.4594 16.8044C30.5826 16.747 30.8084 16.6443 30.8864 16.5991C30.9644 16.554 30.9973 16.4883 30.9973 16.4226C30.9973 16.3856 30.985 16.3487 30.9644 16.3158C30.8618 16.1475 30.3239 15.5809 29.433 14.9609C28.7268 15.351 27.6182 15.9545 25.9759 15.9627C25.5735 15.9627 25.4832 15.934 25.2081 15.9381C24.4034 15.9381 24.2063 16.283 24.1735 16.9892C24.1694 17.1206 24.1694 17.3012 24.157 17.4983C24.1324 18.1306 24.0585 18.9969 23.5781 19.5758Z" fill="white"/>
</svg>
