<svg width="37" height="37" viewBox="0 0 37 37" fill="none" xmlns="http://www.w3.org/2000/svg">
<rect width="37" height="37" rx="14" fill="#014DA2"/>
<path d="M29.4473 17.2308H30.4582L30.5826 14.25H26.5391V15.1209H29.5354L29.4473 17.2308Z" fill="white"/>
<path d="M31.2824 14V18.8781H29.8672V19.6868H31.2824V21.0295H32.3555V14H31.2824Z" fill="white"/>
<path d="M27.9717 18.8828H26.9297V22.382H32.3573V21.4852H27.9717V18.8828Z" fill="white"/>
<path d="M28.456 20.3981H29.4358V18.4282H31.0273V17.5625H26.3047V18.4282H28.456V20.3981Z" fill="white"/>
<path d="M25.5538 17.5703H19.2656V18.4049H25.5538V17.5703Z" fill="white"/>
<path d="M9.46875 14V18.4116H10.5574V16.6386H11.475V15.7418H10.5574V14H9.46875Z" fill="white"/>
<path d="M5.45312 18.7734H10.549V22.3867H5.45312V18.7734ZM9.507 19.6547H6.49511V21.5002H9.507V19.6547Z" fill="white"/>
<path d="M17.8973 14V18.4116H16.8294V16.6386H15.4453V15.7418H16.8139V14H17.8973Z" fill="white"/>
<path d="M15.2237 22.6084C13.6633 22.6084 12.3984 21.696 12.3984 20.5659C12.3984 19.4358 13.6633 18.5234 15.2237 18.5234C16.7841 18.5234 18.0438 19.4358 18.0438 20.5659C18.0438 21.696 16.7841 22.6084 15.2237 22.6084ZM16.9811 20.5659C16.9811 19.9387 16.1931 19.4255 15.2237 19.4255C14.2543 19.4255 13.4663 19.9387 13.4663 20.5659C13.4663 21.1932 14.2543 21.7116 15.2237 21.7116C16.1931 21.7116 16.9811 21.1984 16.9811 20.5659Z" fill="white"/>
<path d="M6.91136 14.1562C6.91136 14.1562 6.76621 16.5409 8.69983 17.531L8.14515 18.2983C8.14515 18.2983 6.72992 17.3651 6.40851 16.3387C6.0871 17.3651 4.67187 18.2983 4.67187 18.2983L4.11719 17.531C6.056 16.5409 5.91085 14.1562 5.91085 14.1562H6.91654H6.91136Z" fill="white"/>
<path d="M13.6096 16.3439C13.2934 17.3703 11.9922 18.2205 11.9922 18.2205L11.4375 17.4533C13.2519 16.5461 13.1067 14.1562 13.1067 14.1562H14.1124C14.1124 14.1562 13.9725 16.5461 15.7869 17.4533L15.2322 18.2205C15.2322 18.2205 13.9362 17.3651 13.6148 16.3439" fill="white"/>
<path d="M22.4218 22.6092C20.8822 22.6092 19.6328 21.7279 19.6328 20.6444C19.6328 19.561 20.8822 18.6797 22.4218 18.6797C23.9614 18.6797 25.2056 19.561 25.2056 20.6444C25.2056 21.7279 23.9614 22.6092 22.4218 22.6092ZM24.1532 20.6444C24.1532 20.0379 23.3757 19.5454 22.4218 19.5454C21.4679 19.5454 20.6903 20.0379 20.6903 20.6444C20.6903 21.2509 21.4679 21.7434 22.4218 21.7434C23.3757 21.7434 24.1532 21.2509 24.1532 20.6444Z" fill="white"/>
<path d="M19.6092 14.2734V15.1599H21.7606C21.7606 15.1599 21.5118 16.0878 19.5781 16.3885L19.7699 17.2439C19.7699 17.2439 21.999 16.8551 22.4138 15.8286C22.8285 16.8551 25.0524 17.2439 25.0524 17.2439L25.2494 16.3885C23.3158 16.0878 23.0669 15.1599 23.0669 15.1599H25.2183V14.2734H19.6092Z" fill="white"/>
</svg>
