<svg width="37" height="37" viewBox="0 0 37 37" fill="none" xmlns="http://www.w3.org/2000/svg">
<rect width="37" height="37" rx="14" fill="#005DA1"/>
<path d="M11.8041 22.0662C11.6236 23.0254 12.1175 23.3388 12.9818 23.3388C13.5896 23.3388 14.2734 23.1109 14.4064 22.503C14.5679 21.7812 13.4946 21.6388 12.4594 21.3064C11.4337 20.9739 10.389 20.4516 10.7309 18.9415C11.1393 17.1559 12.9913 16.4531 14.4444 16.4531C15.983 16.4531 17.3506 17.2414 16.9422 19.0934H14.9288C15.1282 18.3431 14.5204 18.1057 13.903 18.1057C13.4661 18.1057 12.8963 18.2671 12.7728 18.8085C12.6304 19.4353 13.7226 19.5588 14.7673 19.8912C15.812 20.2236 16.8093 20.7745 16.4769 22.2561C16.002 24.3266 14.188 25.0009 12.4879 25.0009C10.7878 25.0009 9.32523 24.1746 9.79061 22.0756H11.8041V22.0662Z" fill="white"/>
<path d="M25.7348 16.625H27.7483L25.8963 24.8119H23.8828L25.7348 16.625Z" fill="white"/>
<path d="M18.3928 16.6257H22.0113C23.3505 16.6067 24.7276 16.9676 24.3382 18.6772C24.1672 19.4085 23.6259 20.0068 22.9421 20.3297C23.7114 20.5862 24.0438 21.3365 23.8348 22.2672C23.3885 24.2142 21.9068 24.8125 20.2448 24.8125H16.5312L18.3928 16.6257ZM19.6844 19.8549H21.242C21.5839 19.8549 22.1063 19.6554 22.2393 19.0761C22.3722 18.4777 22.0208 18.2878 21.5934 18.2878H20.0358L19.6844 19.8643V19.8549ZM18.9436 23.1125H20.5582C21.1945 23.1125 21.6979 22.8751 21.8499 22.1912C22.0113 21.4694 21.5934 21.232 20.9856 21.232H19.371L18.9436 23.1125Z" fill="white"/>
<path d="M30.5667 13.3404C29.4555 10.3867 23.0826 10.0448 16.3394 12.5901C11.5242 14.3946 7.82015 17.1869 6.5 19.7037C8.33302 17.7947 11.2867 15.9142 14.8483 14.5656C21.5915 12.0203 27.9644 12.3622 29.0756 15.3254C29.389 16.1707 29.2465 17.1489 28.7147 18.1651C30.3482 16.4651 31.0796 14.7365 30.5572 13.3404" fill="white"/>
</svg>
