<svg width="37" height="37" viewBox="0 0 37 37" fill="none" xmlns="http://www.w3.org/2000/svg">
<rect width="37" height="37" rx="14" fill="#E7310E"/>
<path d="M11.0779 16.4239C10.4272 16.4239 9.96181 16.6381 9.5829 17.1817C9.33991 16.7061 8.84569 16.4239 8.15584 16.4239C7.63073 16.4239 7.0109 16.6958 6.7679 17.122V16.5681H5.35938V21.395H6.83586V18.617C6.83586 18.1805 7.11798 17.781 7.63279 17.781C8.1476 17.781 8.40913 18.1414 8.40913 18.5964V21.3929H9.86502V18.6067C9.86502 18.1805 10.1471 17.781 10.6702 17.781C11.1932 17.781 11.4362 18.1414 11.4362 18.5964V21.3929H12.8633V18.267C12.8633 16.9552 11.9902 16.4219 11.0759 16.4219L11.0779 16.4239Z" fill="white"/>
<path d="M20.1614 17.2215V16.5708H18.7344V21.3977H20.2109V19.2911C20.2109 18.3294 20.7442 17.9793 21.3373 17.9793C21.4835 17.9793 21.6379 17.9896 21.8027 18.0288V16.5729C21.7059 16.544 21.5597 16.5234 21.4135 16.5234C21.0243 16.5234 20.4127 16.6779 20.1614 17.2236V17.2215Z" fill="white"/>
<path d="M23.789 16.5703H22.3125V21.3972H23.789V16.5703Z" fill="white"/>
<path d="M26.4511 15.1583H25.1311V15.7802C25.1311 16.2271 24.8881 16.5668 24.3836 16.5668H24.1406V17.858H24.9952V19.9255C24.9952 20.8872 25.6068 21.4782 26.6076 21.4782C27.073 21.4782 27.316 21.3711 27.3757 21.3422V20.119C27.2872 20.1376 27.143 20.1664 26.9865 20.1664C26.6653 20.1664 26.4532 20.0593 26.4532 19.6619V17.8559H27.3942V16.5648H26.4532V15.1562L26.4511 15.1583Z" fill="white"/>
<path d="M23.0348 13.8594C22.5221 13.8594 22.0938 14.2877 22.0938 14.8107C22.0938 15.3338 22.5221 15.7621 23.0348 15.7621C23.5476 15.7621 23.9965 15.3338 23.9965 14.8107C23.9965 14.2877 23.5682 13.8594 23.0348 13.8594Z" fill="white"/>
<path d="M15.7798 16.3984C14.5134 16.3984 13.3438 17.3992 13.3438 18.9704C13.3438 20.5417 14.5422 21.5733 15.8869 21.5733C16.9927 21.5733 17.73 21.007 18.0409 20.2842L16.8198 19.8209C16.6591 20.1174 16.3709 20.3069 15.9055 20.3069C15.3268 20.3069 14.8264 19.9136 14.7955 19.3638H18.1933C18.2036 19.3349 18.2221 19.1084 18.2221 18.9025C18.2221 17.3313 17.2893 16.3984 15.7778 16.3984H15.7798ZM14.8285 18.4021C14.8573 18.0397 15.1724 17.5763 15.8004 17.5763C16.5068 17.5763 16.7621 18.0273 16.7827 18.4021H14.8285Z" fill="white"/>
<path d="M29.7591 20.106L31.9625 17.7853V16.5703H28.0108V17.8347V17.8635H30.0515L27.9531 20.0958V21.3972H32.0016V20.1246V20.106H29.7591Z" fill="white"/>
</svg>
