<svg width="64" height="64" viewBox="0 0 64 64" fill="none" xmlns="http://www.w3.org/2000/svg">
<rect width="64" height="64" rx="10" fill="#F3F5F6"/>
<path d="M31.9988 36.549C34.0089 36.549 35.6383 34.9196 35.6383 32.9095C35.6383 30.8995 34.0089 29.27 31.9988 29.27C29.9888 29.27 28.3594 30.8995 28.3594 32.9095C28.3594 34.9195 29.9888 36.549 31.9988 36.549Z" fill="#695CBF"/>
<path d="M42.0117 25.6302H38.656C38.4855 25.6302 38.2738 25.5199 38.109 25.3459L36.6336 23.0174C36.6103 22.9805 36.5843 22.9453 36.5557 22.9122C36.0461 22.3178 35.3573 21.9902 34.618 21.9902H29.3855C28.6461 21.9902 27.9574 22.3178 27.4478 22.9122C27.4192 22.9453 27.3932 22.9805 27.3698 23.0174L25.8945 25.3493C25.7682 25.4869 25.5908 25.6336 25.4042 25.6336V25.1786C25.4042 24.9373 25.3083 24.7058 25.1377 24.5351C24.967 24.3646 24.7355 24.2686 24.4942 24.2686H23.1292C22.8879 24.2686 22.6564 24.3646 22.4858 24.5351C22.3151 24.7058 22.2192 24.9373 22.2192 25.1786V25.6336H21.9917C21.2679 25.6344 20.574 25.9222 20.0621 26.4341C19.5503 26.9458 19.2625 27.6399 19.2617 28.3636V39.2802C19.2625 40.004 19.5503 40.698 20.0621 41.2099C20.574 41.7216 21.2679 42.0095 21.9917 42.0102H42.0117C42.7355 42.0095 43.4295 41.7216 43.9413 41.2099C44.4531 40.698 44.7409 40.004 44.7417 39.2802V28.3602C44.7409 27.6364 44.4531 26.9425 43.9413 26.4307C43.4295 25.9189 42.7355 25.631 42.0117 25.6302ZM32.0017 38.3702C30.9218 38.3702 29.8662 38.0501 28.9683 37.4501C28.0704 36.85 27.3706 35.9974 26.9574 34.9997C26.5441 34.002 26.4359 32.9042 26.6466 31.845C26.8573 30.7859 27.3773 29.813 28.1409 29.0494C28.9046 28.2859 29.8774 27.7658 30.9365 27.5552C31.9957 27.3444 33.0934 27.4526 34.0912 27.8659C35.0888 28.2791 35.9415 28.9789 36.5415 29.8768C37.1415 30.7747 37.4617 31.8304 37.4617 32.9102C37.46 34.3578 36.8842 35.7456 35.8607 36.7692C34.8371 37.7928 33.4493 38.3686 32.0017 38.3702Z" fill="#695CBF"/>
</svg>
