<svg width="64" height="64" viewBox="0 0 64 64" fill="none" xmlns="http://www.w3.org/2000/svg">
<rect width="64" height="64" rx="10" fill="#F3F5F6"/>
<path d="M41.3387 36.3298C41.2545 36.2283 41.1718 36.1268 41.0906 36.0289C39.9742 34.6786 39.2988 33.8636 39.2988 30.041C39.2988 28.0619 38.8253 26.438 37.8921 25.2201C37.204 24.3205 36.2738 23.6379 35.0478 23.1335C35.032 23.1247 35.018 23.1132 35.0062 23.0995C34.5652 21.6228 33.3585 20.6338 31.9975 20.6338C30.6365 20.6338 29.4303 21.6228 28.9893 23.098C28.9776 23.1112 28.9637 23.1224 28.9482 23.131C26.0872 24.3088 24.6968 26.5684 24.6968 30.0394C24.6968 33.8636 24.0224 34.6786 22.905 36.0274C22.8238 36.1253 22.7411 36.2248 22.6568 36.3283C22.4392 36.5907 22.3014 36.91 22.2596 37.2483C22.2178 37.5866 22.2737 37.9298 22.4209 38.2374C22.734 38.897 23.4013 39.3065 24.1629 39.3065H39.8377C40.5958 39.3065 41.2586 38.8975 41.5727 38.2409C41.7205 37.9333 41.7769 37.5898 41.7355 37.2511C41.694 36.9124 41.5564 36.5927 41.3387 36.3298Z" fill="#6685E8"/>
<path d="M31.9994 43.367C32.7326 43.3665 33.4519 43.1674 34.0812 42.7911C34.7104 42.4147 35.226 41.8752 35.5734 41.2295C35.5897 41.1985 35.5978 41.1639 35.5969 41.1289C35.5959 41.0939 35.5858 41.0598 35.5678 41.0297C35.5497 40.9998 35.5242 40.975 35.4937 40.9578C35.4632 40.9406 35.4288 40.9315 35.3938 40.9316H28.606C28.571 40.9315 28.5364 40.9404 28.5059 40.9576C28.4754 40.9748 28.4498 40.9995 28.4317 41.0296C28.4134 41.0595 28.4034 41.0937 28.4024 41.1288C28.4014 41.1638 28.4095 41.1985 28.4259 41.2295C28.7732 41.8751 29.2888 42.4146 29.918 42.791C30.547 43.1673 31.2663 43.3664 31.9994 43.367Z" fill="#6685E8"/>
</svg>
