<svg width="50" height="50" viewBox="0 0 50 50" fill="none" xmlns="http://www.w3.org/2000/svg">
<g clip-path="url(#clip0_2927_39260)">
<rect width="50" height="50" rx="25" fill="#CDF6FF"/>
<g clip-path="url(#clip1_2927_39260)">
<path d="M12.9297 11H38.0756C39.6938 11 41.0053 12.3025 41.0053 13.9095V57.0905C41.0053 58.6975 39.6938 60 38.0756 60H12.9297C11.3115 60 10 58.6975 10 57.0905V13.9095C10 12.3025 11.3115 11 12.9297 11Z" fill="#58C4DD"/>
<path d="M37.5103 17.8594H13.4961V51.8968H37.5103V17.8594Z" fill="url(#paint0_linear_2927_39260)"/>
<path d="M24.1875 14.3867H26.8105" stroke="white" stroke-width="2" stroke-miterlimit="10"/>
<path d="M20.0938 35.9505C20.5908 36.5492 21.0827 37.0008 21.4793 37.2792C23.4148 38.6079 25.4984 40.236 25.4984 40.236V33.4453L20.0938 35.9505Z" fill="#FFED6E"/>
<path d="M25.5 40.2347C25.5 40.2347 27.5836 38.6067 29.5191 37.2779C30.8465 36.3641 33.1257 33.5333 33.6493 29.668L25.5 33.4441V40.2347Z" fill="#FF6464"/>
<path d="M32.8772 23.8559C32.0839 23.9977 28.0437 24.6122 25.5 23.0156V27.2749L32.8772 23.8559Z" fill="#FF6464"/>
<path d="M25.4983 23.0156C22.669 24.7908 17.9836 23.8297 17.9836 23.8297C17.0529 26.4556 17.0899 28.882 17.5923 30.9407L25.4983 27.2749V23.0156Z" fill="#FFED6E"/>
<path d="M33.0147 23.8281C33.0147 23.8281 32.9671 23.8386 32.8772 23.8544L25.5 27.2734V33.4443L33.6493 29.6682C33.8872 27.9088 33.7603 25.9341 33.0147 23.8281Z" fill="#FFED6E"/>
<path d="M25.4998 27.2734L17.5938 30.9392C18.112 33.0558 19.1274 34.7889 20.0951 35.9495L25.4998 33.4444V27.2734Z" fill="#FF6464"/>
</g>
</g>
<defs>
<linearGradient id="paint0_linear_2927_39260" x1="25.5032" y1="17.8594" x2="25.5032" y2="51.8968" gradientUnits="userSpaceOnUse">
<stop offset="0.545" stop-color="white"/>
<stop offset="1" stop-color="#CDF6FF"/>
</linearGradient>
<clipPath id="clip0_2927_39260">
<rect width="50" height="50" rx="25" fill="white"/>
</clipPath>
<clipPath id="clip1_2927_39260">
<rect width="31" height="49" fill="white" transform="translate(10 11)"/>
</clipPath>
</defs>
</svg>
