<svg width="64" height="64" viewBox="0 0 64 64" fill="none" xmlns="http://www.w3.org/2000/svg">
<rect width="64" height="64" rx="10" fill="#F3F5F6"/>
<path fill-rule="evenodd" clip-rule="evenodd" d="M20.625 23.875C20.625 23.013 20.9674 22.1864 21.5769 21.5769C22.1864 20.9674 23.013 20.625 23.875 20.625H25.3613C26.293 20.625 27.1055 21.2598 27.3319 22.1633L28.529 26.9549C28.626 27.3427 28.6064 27.7506 28.4727 28.1273C28.3389 28.5041 28.097 28.833 27.7772 29.0728L26.3764 30.1237C26.2302 30.2331 26.1988 30.3934 26.2399 30.505C26.8513 32.1678 27.8168 33.6778 29.0695 34.9305C30.3222 36.1832 31.8322 37.1487 33.495 37.7601C33.6066 37.8012 33.7658 37.7698 33.8763 37.6236L34.9272 36.2228C35.167 35.903 35.4959 35.6611 35.8727 35.5273C36.2494 35.3936 36.6573 35.374 37.0451 35.471L41.8367 36.6681C42.7402 36.8945 43.375 37.707 43.375 38.6398V40.125C43.375 40.987 43.0326 41.8136 42.4231 42.4231C41.8136 43.0326 40.987 43.375 40.125 43.375H37.6875C28.2647 43.375 20.625 35.7353 20.625 26.3125V23.875Z" fill="#2EA574"/>
</svg>
