<svg width="30" height="30" viewBox="0 0 30 30" fill="none" xmlns="http://www.w3.org/2000/svg">
<rect width="30" height="30" rx="15" fill="#EDF7FF"/>
<path d="M21.6785 18.5166V20.6594C21.6793 20.8584 21.6385 21.0553 21.5588 21.2375C21.4791 21.4198 21.3622 21.5834 21.2157 21.7179C21.0691 21.8524 20.896 21.9548 20.7076 22.0185C20.5191 22.0823 20.3194 22.1059 20.1213 22.088C17.9233 21.8492 15.812 21.0981 13.957 19.8952C12.2312 18.7985 10.768 17.3353 9.67131 15.6094C8.46415 13.746 7.71291 11.6244 7.47845 9.41659C7.4606 9.21906 7.48408 9.01999 7.54738 8.83203C7.61069 8.64408 7.71243 8.47137 7.84614 8.32489C7.97985 8.17841 8.1426 8.06138 8.32402 7.98125C8.50544 7.90111 8.70155 7.85963 8.89988 7.85944H11.0427C11.3894 7.85603 11.7254 7.97879 11.9883 8.20482C12.2511 8.43086 12.4228 8.74476 12.4713 9.08802C12.5618 9.77378 12.7295 10.4471 12.9713 11.0952C13.0674 11.3508 13.0882 11.6287 13.0312 11.8958C12.9743 12.1629 12.8419 12.4081 12.6499 12.6023L11.7427 13.5094C12.7596 15.2977 14.2402 16.7783 16.0285 17.7952L16.9356 16.888C17.1298 16.696 17.375 16.5636 17.6421 16.5067C17.9092 16.4497 18.1871 16.4705 18.4427 16.5666C19.0908 16.8084 19.7641 16.9761 20.4499 17.0666C20.7969 17.1155 21.1137 17.2903 21.3403 17.5577C21.5668 17.825 21.6871 18.1663 21.6785 18.5166Z" fill="#008DFF"/>
</svg>
