<svg width="64" height="64" viewBox="0 0 64 64" fill="none" xmlns="http://www.w3.org/2000/svg">
<rect width="64" height="64" rx="10" fill="#F3F5F6"/>
<path d="M40.125 41.75C40.987 41.75 41.8136 41.4076 42.4231 40.7981C43.0326 40.1886 43.375 39.362 43.375 38.5V33.625C43.375 32.763 43.0326 31.9364 42.4231 31.3269C41.8136 30.7174 40.987 30.375 40.125 30.375H23.875C23.013 30.375 22.1864 30.7174 21.5769 31.3269C20.9674 31.9364 20.625 32.763 20.625 33.625V38.5C20.625 39.362 20.9674 40.1886 21.5769 40.7981C22.1864 41.4076 23.013 41.75 23.875 41.75H40.125ZM20.625 29.9915V25.5C20.625 24.638 20.9674 23.8114 21.5769 23.2019C22.1864 22.5924 23.013 22.25 23.875 22.25H29.7022C30.3483 22.2503 30.9679 22.5071 31.4247 22.9639L33.7236 25.2617C33.8753 25.4144 34.0822 25.5 34.2977 25.5H40.125C40.987 25.5 41.8136 25.8424 42.4231 26.4519C43.0326 27.0614 43.375 27.888 43.375 28.75V29.9915C42.4822 29.1905 41.3245 28.7483 40.125 28.75H23.875C22.6755 28.7483 21.5178 29.1905 20.625 29.9915Z" fill="#FFC601"/>
</svg>
