<svg width="50" height="50" viewBox="0 0 50 50" fill="none" xmlns="http://www.w3.org/2000/svg">
<rect width="50" height="50" rx="25" fill="#FFEBC4"/>
<g clip-path="url(#clip0_2927_39276)">
<path d="M40.9737 14H10.0263C8.9072 14 8 14.9226 8 16.0608V34.9392C8 36.0774 8.9072 37 10.0263 37H40.9737C42.0928 37 43 36.0774 43 34.9392V16.0608C43 14.9226 42.0928 14 40.9737 14Z" fill="white"/>
<path d="M39.778 17.5625H30.2422V28.4828H39.778V17.5625Z" fill="#FFC600"/>
<path d="M31.4883 28.4813H38.5292C38.5292 26.3883 37.6869 24.5873 36.4765 23.7666C36.9945 23.3347 37.3257 22.6789 37.3257 21.9424C37.3257 20.6396 36.2879 19.5859 35.0087 19.5859C33.7295 19.5859 32.6917 20.6414 32.6917 21.9424C32.6917 22.6771 33.023 23.333 33.541 23.7666C32.3305 24.5873 31.4883 26.3883 31.4883 28.4813Z" fill="#707D82"/>
<path d="M19.3681 18.1484H10.8789V19.7913H19.3681V18.1484Z" fill="#707D82"/>
<path d="M24.3387 21.543H10.8789V23.1858H24.3387V21.543Z" fill="#707D82"/>
<path d="M20.3178 30.1172H10.8789V31.76H20.3178V30.1172Z" fill="#707D82"/>
</g>
<defs>
<clipPath id="clip0_2927_39276">
<rect width="35" height="23" fill="white" transform="translate(8 14)"/>
</clipPath>
</defs>
</svg>
