<svg width="220" height="140" viewBox="0 0 220 140" fill="none" xmlns="http://www.w3.org/2000/svg">
<rect width="220" height="140" fill="white"/>
<rect x="2.5" y="2.5" width="215" height="135" rx="17.5" fill="white" stroke="#E7E9EB" stroke-width="5"/>
<rect x="16" y="16" width="188" height="108" rx="11" fill="white" stroke="#E7E9EB" stroke-width="2"/>
<rect x="32" y="56" width="52" height="56" rx="10" fill="#E7E9EB"/>
<path d="M81.8758 107.887C81.5963 106.61 80.3144 102.942 76.6872 101.051C73.0601 99.1624 66.7203 96.9017 66.7203 96.9017C66.7203 96.9017 66.3861 95.8274 65.9031 95.2342C65.4201 94.6411 64.4541 94.1599 64.4541 94.1599V93.0855C64.4541 93.0855 65.2348 92.8646 65.496 91.6026C65.7573 90.3437 65.7937 87.7864 65.7937 87.7864C65.7937 87.7864 67.902 87.7411 68.3789 84.8509C68.8558 81.9608 67.8199 80.7654 67.8199 80.7654C67.8199 80.7654 69.0654 78.9678 68.546 73.3358C68.0204 67.7038 63.2602 66 58.5 66C53.7398 66 48.9796 67.7038 48.4571 73.3358C47.9376 78.9678 49.1831 80.7654 49.1831 80.7654C49.1831 80.7654 48.1472 81.9608 48.6241 84.8509C49.1011 87.7411 51.2093 87.7864 51.2093 87.7864C51.2093 87.7864 51.2458 90.3437 51.507 91.6026C51.7683 92.8616 52.549 93.0855 52.549 93.0855V94.1599C52.549 94.1599 51.583 94.6411 51.0999 95.2342C50.6169 95.8274 50.2828 96.9017 50.2828 96.9017C50.2828 96.9017 43.9429 99.1624 40.3158 101.051C36.6856 102.942 35.4037 106.61 35.1242 107.887C34.8447 109.164 35.1242 112 35.1242 112H81.8758C81.8758 112 82.1553 109.164 81.8758 107.887Z" fill="white"/>
<rect x="32" y="30" width="77" height="8" rx="4" fill="#E7E9EB"/>
<rect x="167" y="30" width="28" height="8" rx="4" fill="#E7E9EB"/>
<rect x="95" y="63" width="39" height="4" rx="2" fill="#E7E9EB"/>
<rect x="95" y="75" width="20" height="4" rx="2" fill="#E7E9EB"/>
<rect x="118" y="75" width="36" height="4" rx="2" fill="#E7E9EB"/>
<rect x="95" y="87" width="46" height="4" rx="2" fill="#E7E9EB"/>
<rect x="95" y="99" width="32" height="4" rx="2" fill="#E7E9EB"/>
</svg>
