<svg width="185" height="149" viewBox="0 0 185 149" fill="none" xmlns="http://www.w3.org/2000/svg">
<g filter="url(#filter0_d_3682_37936)">
<g clip-path="url(#clip0_3682_37936)">
<rect x="12" y="7" width="161" height="125" rx="10" fill="white"/>
<path opacity="0.2" d="M119.5 44L155 8.5H175V44H119.5Z" fill="url(#paint0_linear_3682_37936)"/>
<path opacity="0.4" d="M119 44H11V66H97L119 44Z" fill="url(#paint1_linear_3682_37936)"/>
<path d="M12 67H96L157 6" stroke="url(#paint2_linear_3682_37936)" stroke-width="1.5"/>
<path d="M101 66C101 68.2091 99.2091 70 97 70C94.7909 70 93 68.2091 93 66C93 63.7909 94.7909 62 97 62C99.2091 62 101 63.7909 101 66Z" fill="#2899FB"/>
<path d="M12 44H172" stroke="#727375" stroke-linecap="round" stroke-linejoin="round" stroke-dasharray="2 2"/>
<path d="M90.4287 91.3516V92.5547H79.1357V91.3516H84.0303V90.4355H80.5713V87.25H87.5166V86.3477H80.5303V85.1582H89.0342V88.3438H82.0752V89.2734H89.2803V90.4355H85.5342V91.3516H90.4287ZM84.7686 93.1973C87.5166 93.1973 89.0889 93.8945 89.1025 95.207C89.0889 96.5059 87.5166 97.2031 84.7686 97.2031C81.9932 97.2031 80.4072 96.5059 80.4072 95.207C80.4072 93.8945 81.9932 93.1973 84.7686 93.1973ZM84.7686 94.3457C82.8955 94.3457 81.9521 94.6191 81.9521 95.207C81.9521 95.7949 82.8955 96.0957 84.7686 96.082C86.6006 96.0957 87.5439 95.7949 87.5576 95.207C87.5439 94.6191 86.6006 94.3457 84.7686 94.3457ZM104.511 85.1445V85.9375C104.497 86.8125 104.497 87.9746 104.237 89.4785L102.72 89.3828C102.802 88.9248 102.863 88.5078 102.897 88.125L95.7197 88.4395L95.5557 87.25L102.979 87.0723L102.993 86.334H95.8838V85.1445H104.511ZM105.81 90.0391V91.2422H94.5986V90.0391H98.9189V88.7676H100.437V90.0391H105.81ZM104.429 92.0078V95.0566H97.4014V95.8633H104.771V97.0254H95.9111V93.9766H102.938V93.1562H95.8975V92.0078H104.429Z" fill="#070A0F"/>
<path d="M85.375 103.414V105.922H86.8164V107.141H85.375V109.602H83.875V103.414H85.375ZM82.3984 104.117C82.4102 106.965 80.6172 108.957 77.4414 109.836L76.8438 108.629C79.1934 108.002 80.541 106.795 80.7695 105.312H77.3477V104.117H82.3984ZM81.8945 109.73C84.0625 109.73 85.4922 110.574 85.4922 111.91C85.4922 113.258 84.0625 114.09 81.8945 114.09C79.7266 114.09 78.2734 113.258 78.2852 111.91C78.2734 110.574 79.7266 109.73 81.8945 109.73ZM81.8945 110.891C80.5469 110.891 79.75 111.254 79.7617 111.91C79.75 112.555 80.5469 112.93 81.8945 112.918C83.2188 112.93 84.0156 112.555 84.0156 111.91C84.0156 111.254 83.2188 110.891 81.8945 110.891ZM90.707 106.098C90.707 107.82 91.1875 109.602 92.6406 110.539L91.832 111.699C90.9121 111.143 90.3262 110.229 89.9922 109.133C89.6055 110.34 88.9668 111.348 88 111.934L87.0859 110.832C88.668 109.848 89.2539 107.973 89.2539 106.168V104.328H90.707V106.098ZM96.5312 103.414V114.078H95.1016V103.414H96.5312ZM94.293 103.566V113.586H92.8984V108.23H91.5156V107.012H92.8984V103.566H94.293ZM102.18 113V107.047L99.9531 109.273L98.9922 108.336L102.871 104.469L106.738 108.336L105.789 109.273L103.562 107.047V113H102.18Z" fill="#FF5E70"/>
</g>
</g>
<defs>
<filter id="filter0_d_3682_37936" x="0" y="0" width="185" height="149" filterUnits="userSpaceOnUse" color-interpolation-filters="sRGB">
<feFlood flood-opacity="0" result="BackgroundImageFix"/>
<feColorMatrix in="SourceAlpha" type="matrix" values="0 0 0 0 0 0 0 0 0 0 0 0 0 0 0 0 0 0 127 0" result="hardAlpha"/>
<feOffset dy="5"/>
<feGaussianBlur stdDeviation="6"/>
<feComposite in2="hardAlpha" operator="out"/>
<feColorMatrix type="matrix" values="0 0 0 0 0 0 0 0 0 0 0 0 0 0 0 0 0 0 0.18 0"/>
<feBlend mode="normal" in2="BackgroundImageFix" result="effect1_dropShadow_3682_37936"/>
<feBlend mode="normal" in="SourceGraphic" in2="effect1_dropShadow_3682_37936" result="shape"/>
</filter>
<linearGradient id="paint0_linear_3682_37936" x1="147.25" y1="8.5" x2="147.25" y2="44" gradientUnits="userSpaceOnUse">
<stop stop-color="#FFD8D7" stop-opacity="0.3"/>
<stop offset="1" stop-color="#FF5E6E"/>
</linearGradient>
<linearGradient id="paint1_linear_3682_37936" x1="65" y1="44" x2="65" y2="66" gradientUnits="userSpaceOnUse">
<stop stop-color="#D7EDFF" stop-opacity="0.3"/>
<stop offset="1" stop-color="#239AFD"/>
</linearGradient>
<linearGradient id="paint2_linear_3682_37936" x1="84.5" y1="6" x2="84.5" y2="67" gradientUnits="userSpaceOnUse">
<stop offset="0.640331" stop-color="#FF5F6F"/>
<stop offset="1" stop-color="#239AFD"/>
</linearGradient>
<clipPath id="clip0_3682_37936">
<rect x="12" y="7" width="161" height="125" rx="10" fill="white"/>
</clipPath>
</defs>
</svg>
