<svg width="20" height="20" viewBox="0 0 20 20" fill="none" xmlns="http://www.w3.org/2000/svg">
<rect width="20" height="20" rx="10" fill="#EEEFF1"/>
<path d="M8.76953 11.9297C8.77539 10.4707 9.16797 10.0254 9.87109 9.58594C10.375 9.25781 10.7676 8.89453 10.7617 8.35547C10.7676 7.76953 10.3105 7.38867 9.74219 7.38281C9.19727 7.38867 8.6875 7.75195 8.66406 8.4375H7C7.0293 6.79102 8.25391 6 9.75391 6C11.3887 6 12.543 6.84961 12.543 8.29688C12.543 9.26367 12.0449 9.87305 11.2773 10.3359C10.6152 10.7285 10.3223 11.1094 10.3164 11.9297V12.0586H8.76953V11.9297ZM8.59375 13.7227C8.58203 13.1836 9.02734 12.7441 9.57812 12.75C10.0996 12.7441 10.5508 13.1836 10.5508 13.7227C10.5508 14.2676 10.0996 14.707 9.57812 14.707C9.02734 14.707 8.58203 14.2676 8.59375 13.7227Z" fill="#737679"/>
</svg>
