<svg width="220" height="140" viewBox="0 0 220 140" fill="none" xmlns="http://www.w3.org/2000/svg">
<rect width="220" height="140" fill="white"/>
<path d="M84 52L94 45V59L84 52Z" fill="#E7E9EB"/>
<circle cx="99" cy="52" r="2" fill="#E7E9EB"/>
<circle cx="106" cy="52" r="2" fill="#E7E9EB"/>
<circle cx="113" cy="52" r="2" fill="#E7E9EB"/>
<circle cx="120" cy="52" r="2" fill="#E7E9EB"/>
<circle cx="127" cy="52" r="2" fill="#E7E9EB"/>
<circle cx="134" cy="52" r="2" fill="#E7E9EB"/>
<path d="M136 89L126 82V96L136 89Z" fill="#E7E9EB"/>
<circle cx="2" cy="2" r="2" transform="matrix(-1 0 0 1 123 87)" fill="#E7E9EB"/>
<circle cx="2" cy="2" r="2" transform="matrix(-1 0 0 1 116 87)" fill="#E7E9EB"/>
<circle cx="2" cy="2" r="2" transform="matrix(-1 0 0 1 109 87)" fill="#E7E9EB"/>
<circle cx="2" cy="2" r="2" transform="matrix(-1 0 0 1 102 87)" fill="#E7E9EB"/>
<circle cx="2" cy="2" r="2" transform="matrix(-1 0 0 1 95 87)" fill="#E7E9EB"/>
<circle cx="2" cy="2" r="2" transform="matrix(-1 0 0 1 88 87)" fill="#E7E9EB"/>
<rect width="82" height="140" fill="white"/>
<rect x="2.5" y="2.5" width="77" height="135" rx="7.5" fill="white" stroke="#E7E9EB" stroke-width="5"/>
<rect x="15" y="42" width="52" height="56" rx="10" fill="#E7E9EB"/>
<path d="M64.8758 93.8872C64.5963 92.6101 63.3144 88.9422 59.6872 87.0508C56.0601 85.1624 49.7203 82.9017 49.7203 82.9017C49.7203 82.9017 49.3861 81.8274 48.9031 81.2342C48.4201 80.6411 47.4541 80.1599 47.4541 80.1599V79.0855C47.4541 79.0855 48.2348 78.8646 48.496 77.6026C48.7573 76.3437 48.7937 73.7864 48.7937 73.7864C48.7937 73.7864 50.902 73.7411 51.3789 70.8509C51.8558 67.9608 50.8199 66.7654 50.8199 66.7654C50.8199 66.7654 52.0654 64.9678 51.546 59.3358C51.0204 53.7038 46.2602 52 41.5 52C36.7398 52 31.9796 53.7038 31.4571 59.3358C30.9376 64.9678 32.1831 66.7654 32.1831 66.7654C32.1831 66.7654 31.1472 67.9608 31.6241 70.8509C32.1011 73.7411 34.2093 73.7864 34.2093 73.7864C34.2093 73.7864 34.2458 76.3437 34.507 77.6026C34.7683 78.8616 35.549 79.0855 35.549 79.0855V80.1599C35.549 80.1599 34.583 80.6411 34.0999 81.2342C33.6169 81.8274 33.2828 82.9017 33.2828 82.9017C33.2828 82.9017 26.9429 85.1624 23.3158 87.0508C19.6856 88.9422 18.4037 92.6101 18.1242 93.8872C17.8447 95.1643 18.1242 98 18.1242 98H64.8758C64.8758 98 65.1553 95.1643 64.8758 93.8872Z" fill="white"/>
<rect x="36" y="14" width="10" height="10" rx="5" fill="#E7E9EB"/>
<rect width="82" height="140" transform="translate(138)" fill="white"/>
<rect x="140.5" y="2.5" width="77" height="135" rx="7.5" fill="white" stroke="#E7E9EB" stroke-width="5"/>
<rect x="153" y="42" width="52" height="56" rx="10" fill="#E7E9EB"/>
<g clip-path="url(#clip0_4453_35229)">
<path fill-rule="evenodd" clip-rule="evenodd" d="M178.965 55.0729C177.83 55.0524 176.702 55.2558 175.647 55.6716C174.591 56.0874 173.627 56.7073 172.811 57.4959C171.995 58.2845 171.342 59.2263 170.891 60.2674C170.439 61.3085 170.197 62.4285 170.179 63.5632V75.43C170.179 76.1499 169.893 76.8403 169.384 77.3493C168.875 77.8583 168.184 78.1443 167.464 78.1443H164.071C162.992 78.1443 161.956 77.7153 161.192 76.9518C160.429 76.1883 160 75.1527 160 74.0729V68.6443C160 67.5645 160.429 66.5289 161.192 65.7654C161.956 65.0018 162.992 64.5729 164.071 64.5729H166.107V63.5143C166.132 61.8461 166.485 60.1991 167.146 58.6674C167.808 57.1356 168.764 55.7492 169.962 54.5873C171.159 53.4253 172.573 52.5106 174.124 51.8953C175.675 51.28 177.332 50.9763 179 51.0014C180.668 50.9763 182.325 51.28 183.876 51.8953C185.427 52.5106 186.841 53.4253 188.038 54.5873C189.236 55.7492 190.192 57.1356 190.854 58.6674C191.515 60.1991 191.868 61.8461 191.893 63.5143V63.5414V64.5729H193.929C195.008 64.5729 196.044 65.0018 196.808 65.7654C197.571 66.5289 198 67.5645 198 68.6443V74.0729C198 75.1527 197.571 76.1883 196.808 76.9518C196.044 77.7153 195.008 78.1443 193.929 78.1443H191.893V79.5014C191.893 81.3356 191.218 83.1058 189.997 84.474C188.775 85.8423 187.093 86.7128 185.27 86.9196C184.916 87.5515 184.4 88.0776 183.775 88.4435C183.15 88.8095 182.439 89.0021 181.714 89.0014H177.643C176.563 89.0014 175.527 88.5725 174.764 87.8089C174 87.0454 173.571 86.0098 173.571 84.93C173.571 83.8502 174 82.8146 174.764 82.0511C175.527 81.2875 176.563 80.8586 177.643 80.8586H181.714C183.185 80.8586 184.475 81.6376 185.189 82.8074C185.937 82.6355 186.604 82.2149 187.083 81.6145C187.561 81.014 187.821 80.2691 187.821 79.5014V63.5604C187.803 62.4199 187.558 61.2944 187.102 60.2489C186.646 59.2034 185.987 58.2587 185.163 57.4695C184.34 56.6803 183.368 56.0621 182.304 55.6507C181.24 55.2393 180.105 55.0429 178.965 55.0729Z" fill="white"/>
</g>
<rect x="174" y="14" width="10" height="10" rx="5" fill="#E7E9EB"/>
<defs>
<clipPath id="clip0_4453_35229">
<rect width="38" height="38" fill="white" transform="translate(160 51)"/>
</clipPath>
</defs>
</svg>
